# MagicaVoxel @ Ephtracy

# material
mtllib Item_Wind.mtl
usemtl palette

# normals
vn -1 0 0
vn 1 0 0
vn 0 0 1
vn 0 0 -1
vn 0 -1 0
vn 0 1 0

# texcoords
vt 0.537109 0.5
vt 0.541016 0.5
vt 0.544922 0.5
vt 0.955078 0.5

# verts
v -8.5 4 0.5
v -8.5 4 -0.5
v -8.5 9 0.5
v -8.5 9 -0.5
v -7.5 2 0.5
v -7.5 2 -0.5
v -7.5 4 0.5
v -7.5 4 -0.5
v -7.5 9 0.5
v -7.5 9 -0.5
v -7.5 11 0.5
v -7.5 11 -0.5
v -6.5 1 0.5
v -6.5 1 -0.5
v -6.5 2 0.5
v -6.5 2 -0.5
v -6.5 11 0.5
v -6.5 11 -0.5
v -6.5 12 0.5
v -6.5 12 -0.5
v -4.5 0 0.5
v -4.5 0 -0.5
v -4.5 1 0.5
v -4.5 1 -0.5
v -4.5 12 0.5
v -4.5 12 -0.5
v -4.5 13 0.5
v -4.5 13 -0.5
v 4.5 9 0.5
v 4.5 9 -0.5
v 4.5 10 0.5
v 4.5 10 -0.5
v 5.5 10 0.5
v 5.5 10 -0.5
v 5.5 12 0.5
v 5.5 12 -0.5
v 6.5 12 0.5
v 6.5 12 -0.5
v 6.5 13 0.5
v 6.5 13 -0.5
v 7.5 13 0.5
v 7.5 13 -0.5
v 7.5 15 0.5
v 7.5 15 -0.5
v 0.5 0 0.5
v 0.5 0 -0.5
v 0.5 1 0.5
v 0.5 1 -0.5
v 0.5 12 0.5
v 0.5 12 -0.5
v 0.5 13 0.5
v 0.5 13 -0.5
v 2.5 1 0.5
v 2.5 1 -0.5
v 2.5 2 0.5
v 2.5 2 -0.5
v 2.5 11 0.5
v 2.5 11 -0.5
v 2.5 12 0.5
v 2.5 12 -0.5
v 3.5 2 0.5
v 3.5 2 -0.5
v 3.5 3 0.5
v 3.5 3 -0.5
v 3.5 9 0.5
v 3.5 9 -0.5
v 3.5 11 0.5
v 3.5 11 -0.5
v 4.5 3 0.5
v 4.5 3 -0.5
v 4.5 4 0.5
v 4.5 4 -0.5
v 5.5 4 0.5
v 5.5 4 -0.5
v 5.5 5 0.5
v 5.5 5 -0.5
v 6.5 5 0.5
v 6.5 5 -0.5
v 6.5 7 0.5
v 6.5 7 -0.5
v 7.5 7 0.5
v 7.5 7 -0.5
v 7.5 9 0.5
v 7.5 9 -0.5
v 8.5 9 0.5
v 8.5 9 -0.5
v 8.5 15 0.5
v 8.5 15 -0.5
v -8.5 4 0.5
v -8.5 9 0.5
v -7.5 2 0.5
v -7.5 4 0.5
v -7.5 7 0.5
v -7.5 9 0.5
v -7.5 11 0.5
v -6.5 1 0.5
v -6.5 2 0.5
v -6.5 3 0.5
v -6.5 4 0.5
v -6.5 7 0.5
v -6.5 9 0.5
v -6.5 11 0.5
v -6.5 12 0.5
v -5.5 5 0.5
v -5.5 8 0.5
v -5.5 9 0.5
v -5.5 10 0.5
v -4.5 0 0.5
v -4.5 1 0.5
v -4.5 2 0.5
v -4.5 3 0.5
v -4.5 4 0.5
v -4.5 5 0.5
v -4.5 7 0.5
v -4.5 8 0.5
v -4.5 9 0.5
v -4.5 10 0.5
v -4.5 11 0.5
v -4.5 12 0.5
v -4.5 13 0.5
v -3.5 3 0.5
v -3.5 4 0.5
v -3.5 5 0.5
v -3.5 7 0.5
v -3.5 8 0.5
v -3.5 9 0.5
v -3.5 10 0.5
v -2.5 6 0.5
v -2.5 7 0.5
v -2.5 8 0.5
v -2.5 9 0.5
v -2.5 11 0.5
v -2.5 12 0.5
v -0.5 6 0.5
v -0.5 7 0.5
v -0.5 9 0.5
v -0.5 10 0.5
v 0.5 0 0.5
v 0.5 1 0.5
v 0.5 2 0.5
v 0.5 3 0.5
v 0.5 4 0.5
v 0.5 5 0.5
v 0.5 6 0.5
v 0.5 7 0.5
v 0.5 9 0.5
v 0.5 11 0.5
v 0.5 12 0.5
v 0.5 13 0.5
v 1.5 4 0.5
v 1.5 5 0.5
v 1.5 6 0.5
v 1.5 8 0.5
v 2.5 1 0.5
v 2.5 2 0.5
v 2.5 3 0.5
v 2.5 4 0.5
v 2.5 5 0.5
v 2.5 6 0.5
v 2.5 8 0.5
v 2.5 9 0.5
v 2.5 11 0.5
v 2.5 12 0.5
v 3.5 2 0.5
v 3.5 3 0.5
v 3.5 4 0.5
v 3.5 5 0.5
v 3.5 6 0.5
v 3.5 8 0.5
v 3.5 9 0.5
v 3.5 11 0.5
v 4.5 3 0.5
v 4.5 4 0.5
v 4.5 5 0.5
v 4.5 7 0.5
v 4.5 8 0.5
v 4.5 9 0.5
v 4.5 10 0.5
v 5.5 4 0.5
v 5.5 5 0.5
v 5.5 7 0.5
v 5.5 8 0.5
v 5.5 9 0.5
v 5.5 10 0.5
v 5.5 12 0.5
v 6.5 5 0.5
v 6.5 7 0.5
v 6.5 8 0.5
v 6.5 9 0.5
v 6.5 10 0.5
v 6.5 12 0.5
v 6.5 13 0.5
v 7.5 7 0.5
v 7.5 9 0.5
v 7.5 10 0.5
v 7.5 12 0.5
v 7.5 13 0.5
v 7.5 15 0.5
v 8.5 9 0.5
v 8.5 15 0.5
v -8.5 4 -0.5
v -8.5 9 -0.5
v -7.5 2 -0.5
v -7.5 4 -0.5
v -7.5 7 -0.5
v -7.5 9 -0.5
v -7.5 11 -0.5
v -6.5 1 -0.5
v -6.5 2 -0.5
v -6.5 3 -0.5
v -6.5 4 -0.5
v -6.5 7 -0.5
v -6.5 9 -0.5
v -6.5 11 -0.5
v -6.5 12 -0.5
v -5.5 5 -0.5
v -5.5 8 -0.5
v -5.5 9 -0.5
v -5.5 10 -0.5
v -4.5 0 -0.5
v -4.5 1 -0.5
v -4.5 2 -0.5
v -4.5 3 -0.5
v -4.5 4 -0.5
v -4.5 5 -0.5
v -4.5 7 -0.5
v -4.5 8 -0.5
v -4.5 9 -0.5
v -4.5 10 -0.5
v -4.5 11 -0.5
v -4.5 12 -0.5
v -4.5 13 -0.5
v -3.5 3 -0.5
v -3.5 4 -0.5
v -3.5 5 -0.5
v -3.5 7 -0.5
v -3.5 8 -0.5
v -3.5 9 -0.5
v -3.5 10 -0.5
v -2.5 6 -0.5
v -2.5 7 -0.5
v -2.5 8 -0.5
v -2.5 9 -0.5
v -2.5 11 -0.5
v -2.5 12 -0.5
v -0.5 6 -0.5
v -0.5 7 -0.5
v -0.5 9 -0.5
v -0.5 10 -0.5
v 0.5 0 -0.5
v 0.5 1 -0.5
v 0.5 2 -0.5
v 0.5 3 -0.5
v 0.5 4 -0.5
v 0.5 5 -0.5
v 0.5 6 -0.5
v 0.5 7 -0.5
v 0.5 9 -0.5
v 0.5 11 -0.5
v 0.5 12 -0.5
v 0.5 13 -0.5
v 1.5 4 -0.5
v 1.5 5 -0.5
v 1.5 6 -0.5
v 1.5 8 -0.5
v 2.5 1 -0.5
v 2.5 2 -0.5
v 2.5 3 -0.5
v 2.5 4 -0.5
v 2.5 5 -0.5
v 2.5 6 -0.5
v 2.5 8 -0.5
v 2.5 9 -0.5
v 2.5 11 -0.5
v 2.5 12 -0.5
v 3.5 2 -0.5
v 3.5 3 -0.5
v 3.5 4 -0.5
v 3.5 5 -0.5
v 3.5 6 -0.5
v 3.5 8 -0.5
v 3.5 9 -0.5
v 3.5 11 -0.5
v 4.5 3 -0.5
v 4.5 4 -0.5
v 4.5 5 -0.5
v 4.5 7 -0.5
v 4.5 8 -0.5
v 4.5 9 -0.5
v 4.5 10 -0.5
v 5.5 4 -0.5
v 5.5 5 -0.5
v 5.5 7 -0.5
v 5.5 8 -0.5
v 5.5 9 -0.5
v 5.5 10 -0.5
v 5.5 12 -0.5
v 6.5 5 -0.5
v 6.5 7 -0.5
v 6.5 8 -0.5
v 6.5 9 -0.5
v 6.5 10 -0.5
v 6.5 12 -0.5
v 6.5 13 -0.5
v 7.5 7 -0.5
v 7.5 9 -0.5
v 7.5 10 -0.5
v 7.5 12 -0.5
v 7.5 13 -0.5
v 7.5 15 -0.5
v 8.5 9 -0.5
v 8.5 15 -0.5
v -4.5 0 0.5
v 0.5 0 0.5
v -4.5 0 -0.5
v 0.5 0 -0.5
v -6.5 1 0.5
v -4.5 1 0.5
v 0.5 1 0.5
v 2.5 1 0.5
v -6.5 1 -0.5
v -4.5 1 -0.5
v 0.5 1 -0.5
v 2.5 1 -0.5
v -7.5 2 0.5
v -6.5 2 0.5
v 2.5 2 0.5
v 3.5 2 0.5
v -7.5 2 -0.5
v -6.5 2 -0.5
v 2.5 2 -0.5
v 3.5 2 -0.5
v 3.5 3 0.5
v 4.5 3 0.5
v 3.5 3 -0.5
v 4.5 3 -0.5
v -8.5 4 0.5
v -7.5 4 0.5
v 4.5 4 0.5
v 5.5 4 0.5
v -8.5 4 -0.5
v -7.5 4 -0.5
v 4.5 4 -0.5
v 5.5 4 -0.5
v 5.5 5 0.5
v 6.5 5 0.5
v 5.5 5 -0.5
v 6.5 5 -0.5
v 6.5 7 0.5
v 7.5 7 0.5
v 6.5 7 -0.5
v 7.5 7 -0.5
v 7.5 9 0.5
v 8.5 9 0.5
v 7.5 9 -0.5
v 8.5 9 -0.5
v -8.5 9 0.5
v -7.5 9 0.5
v 3.5 9 0.5
v 4.5 9 0.5
v -8.5 9 -0.5
v -7.5 9 -0.5
v 3.5 9 -0.5
v 4.5 9 -0.5
v 4.5 10 0.5
v 5.5 10 0.5
v 4.5 10 -0.5
v 5.5 10 -0.5
v -7.5 11 0.5
v -6.5 11 0.5
v 2.5 11 0.5
v 3.5 11 0.5
v -7.5 11 -0.5
v -6.5 11 -0.5
v 2.5 11 -0.5
v 3.5 11 -0.5
v -6.5 12 0.5
v -4.5 12 0.5
v 0.5 12 0.5
v 2.5 12 0.5
v 5.5 12 0.5
v 6.5 12 0.5
v -6.5 12 -0.5
v -4.5 12 -0.5
v 0.5 12 -0.5
v 2.5 12 -0.5
v 5.5 12 -0.5
v 6.5 12 -0.5
v -4.5 13 0.5
v 0.5 13 0.5
v 6.5 13 0.5
v 7.5 13 0.5
v -4.5 13 -0.5
v 0.5 13 -0.5
v 6.5 13 -0.5
v 7.5 13 -0.5
v 7.5 15 0.5
v 8.5 15 0.5
v 7.5 15 -0.5
v 8.5 15 -0.5

# faces
f 3/4/1 2/4/1 1/4/1
f 4/4/1 2/4/1 3/4/1
f 7/4/1 6/4/1 5/4/1
f 8/4/1 6/4/1 7/4/1
f 11/4/1 10/4/1 9/4/1
f 12/4/1 10/4/1 11/4/1
f 15/4/1 14/4/1 13/4/1
f 16/4/1 14/4/1 15/4/1
f 19/4/1 18/4/1 17/4/1
f 20/4/1 18/4/1 19/4/1
f 23/4/1 22/4/1 21/4/1
f 24/4/1 22/4/1 23/4/1
f 27/4/1 26/4/1 25/4/1
f 28/4/1 26/4/1 27/4/1
f 31/4/1 30/4/1 29/4/1
f 32/4/1 30/4/1 31/4/1
f 35/4/1 34/4/1 33/4/1
f 36/4/1 34/4/1 35/4/1
f 39/4/1 38/4/1 37/4/1
f 40/4/1 38/4/1 39/4/1
f 43/4/1 42/4/1 41/4/1
f 44/4/1 42/4/1 43/4/1
f 45/4/2 46/4/2 47/4/2
f 47/4/2 46/4/2 48/4/2
f 49/4/2 50/4/2 51/4/2
f 51/4/2 50/4/2 52/4/2
f 53/4/2 54/4/2 55/4/2
f 55/4/2 54/4/2 56/4/2
f 57/4/2 58/4/2 59/4/2
f 59/4/2 58/4/2 60/4/2
f 61/4/2 62/4/2 63/4/2
f 63/4/2 62/4/2 64/4/2
f 65/4/2 66/4/2 67/4/2
f 67/4/2 66/4/2 68/4/2
f 69/4/2 70/4/2 71/4/2
f 71/4/2 70/4/2 72/4/2
f 73/4/2 74/4/2 75/4/2
f 75/4/2 74/4/2 76/4/2
f 77/4/2 78/4/2 79/4/2
f 79/4/2 78/4/2 80/4/2
f 81/4/2 82/4/2 83/4/2
f 83/4/2 82/4/2 84/4/2
f 85/4/2 86/4/2 87/4/2
f 87/4/2 86/4/2 88/4/2
f 92/4/3 90/4/3 89/4/3
f 93/4/3 90/4/3 92/4/3
f 94/4/3 90/4/3 93/4/3
f 97/4/3 92/4/3 91/4/3
f 98/4/3 92/4/3 97/4/3
f 99/2/3 93/2/3 92/2/3
f 99/4/3 92/4/3 98/4/3
f 100/1/3 94/1/3 93/1/3
f 100/2/3 93/2/3 99/2/3
f 101/4/3 95/4/3 94/4/3
f 101/1/3 94/1/3 100/1/3
f 102/4/3 95/4/3 101/4/3
f 104/2/3 100/2/3 99/2/3
f 104/2/3 99/2/3 98/2/3
f 104/2/3 101/2/3 100/2/3
f 105/2/3 101/2/3 104/2/3
f 106/1/3 102/1/3 101/1/3
f 106/2/3 101/2/3 105/2/3
f 107/1/3 102/1/3 106/1/3
f 109/4/3 97/4/3 96/4/3
f 110/3/3 98/3/3 97/3/3
f 110/4/3 97/4/3 109/4/3
f 111/2/3 104/2/3 98/2/3
f 111/3/3 98/3/3 110/3/3
f 112/2/3 104/2/3 111/2/3
f 113/4/3 105/4/3 104/4/3
f 113/2/3 104/2/3 112/2/3
f 114/4/3 105/4/3 113/4/3
f 115/2/3 106/2/3 105/2/3
f 115/4/3 105/4/3 114/4/3
f 115/2/3 107/2/3 106/2/3
f 116/2/3 107/2/3 115/2/3
f 117/1/3 102/1/3 107/1/3
f 117/2/3 107/2/3 116/2/3
f 118/4/3 103/4/3 102/4/3
f 118/1/3 102/1/3 117/1/3
f 119/4/3 103/4/3 118/4/3
f 121/2/3 112/2/3 111/2/3
f 121/2/3 111/2/3 110/2/3
f 122/4/3 113/4/3 112/4/3
f 122/2/3 112/2/3 121/2/3
f 123/2/3 114/2/3 113/2/3
f 123/4/3 113/4/3 122/4/3
f 124/1/3 115/1/3 114/1/3
f 124/2/3 114/2/3 123/2/3
f 125/4/3 116/4/3 115/4/3
f 125/1/3 115/1/3 124/1/3
f 126/2/3 117/2/3 116/2/3
f 126/4/3 116/4/3 125/4/3
f 126/2/3 118/2/3 117/2/3
f 127/2/3 118/2/3 126/2/3
f 128/2/3 125/2/3 124/2/3
f 128/2/3 124/2/3 123/2/3
f 129/2/3 125/2/3 128/2/3
f 130/1/3 126/1/3 125/1/3
f 130/2/3 125/2/3 129/2/3
f 131/4/3 127/4/3 126/4/3
f 131/1/3 126/1/3 130/1/3
f 132/2/3 118/2/3 127/2/3
f 132/1/3 119/1/3 118/1/3
f 133/4/3 120/4/3 119/4/3
f 133/1/3 119/1/3 132/1/3
f 134/4/3 129/4/3 128/4/3
f 134/2/3 128/2/3 123/2/3
f 135/2/3 130/2/3 129/2/3
f 135/4/3 129/4/3 134/4/3
f 135/2/3 131/2/3 130/2/3
f 136/4/3 127/4/3 131/4/3
f 136/2/3 131/2/3 135/2/3
f 137/2/3 132/2/3 127/2/3
f 137/4/3 127/4/3 136/4/3
f 137/2/3 133/2/3 132/2/3
f 138/4/3 109/4/3 108/4/3
f 139/3/3 110/3/3 109/3/3
f 139/4/3 109/4/3 138/4/3
f 140/2/3 121/2/3 110/2/3
f 140/3/3 110/3/3 139/3/3
f 141/4/3 122/4/3 121/4/3
f 141/2/3 121/2/3 140/2/3
f 142/3/3 123/3/3 122/3/3
f 142/4/3 122/4/3 141/4/3
f 143/2/3 135/2/3 134/2/3
f 143/3/3 123/3/3 142/3/3
f 143/2/3 134/2/3 123/2/3
f 144/2/3 135/2/3 143/2/3
f 145/4/3 136/4/3 135/4/3
f 145/2/3 135/2/3 144/2/3
f 146/2/3 137/2/3 136/2/3
f 146/4/3 136/4/3 145/4/3
f 147/2/3 133/2/3 137/2/3
f 147/2/3 137/2/3 146/2/3
f 148/4/3 120/4/3 133/4/3
f 148/2/3 133/2/3 147/2/3
f 149/4/3 120/4/3 148/4/3
f 150/2/3 142/2/3 141/2/3
f 150/4/3 143/4/3 142/4/3
f 151/3/3 144/3/3 143/3/3
f 151/4/3 143/4/3 150/4/3
f 152/2/3 146/2/3 145/2/3
f 152/3/3 144/3/3 151/3/3
f 152/2/3 145/2/3 144/2/3
f 152/2/3 147/2/3 146/2/3
f 153/2/3 147/2/3 152/2/3
f 154/4/3 140/4/3 139/4/3
f 155/3/3 141/3/3 140/3/3
f 155/4/3 140/4/3 154/4/3
f 156/2/3 151/2/3 150/2/3
f 156/3/3 141/3/3 155/3/3
f 156/2/3 150/2/3 141/2/3
f 157/2/3 151/2/3 156/2/3
f 158/4/3 152/4/3 151/4/3
f 158/2/3 151/2/3 157/2/3
f 159/3/3 153/3/3 152/3/3
f 159/4/3 152/4/3 158/4/3
f 160/2/3 147/2/3 153/2/3
f 160/3/3 153/3/3 159/3/3
f 161/2/3 147/2/3 160/2/3
f 162/4/3 148/4/3 147/4/3
f 162/2/3 147/2/3 161/2/3
f 163/4/3 148/4/3 162/4/3
f 164/4/3 156/4/3 155/4/3
f 165/3/3 157/3/3 156/3/3
f 165/4/3 156/4/3 164/4/3
f 166/2/3 158/2/3 157/2/3
f 166/3/3 157/3/3 165/3/3
f 166/2/3 159/2/3 158/2/3
f 167/2/3 159/2/3 166/2/3
f 168/4/3 160/4/3 159/4/3
f 168/2/3 159/2/3 167/2/3
f 169/2/3 161/2/3 160/2/3
f 169/4/3 160/4/3 168/4/3
f 170/4/3 162/4/3 161/4/3
f 170/2/3 161/2/3 169/2/3
f 171/4/3 162/4/3 170/4/3
f 172/4/3 166/4/3 165/4/3
f 173/3/3 167/3/3 166/3/3
f 173/4/3 166/4/3 172/4/3
f 174/2/3 168/2/3 167/2/3
f 174/3/3 167/3/3 173/3/3
f 174/2/3 169/2/3 168/2/3
f 175/2/3 169/2/3 174/2/3
f 176/4/3 170/4/3 169/4/3
f 176/2/3 169/2/3 175/2/3
f 177/4/3 170/4/3 176/4/3
f 179/4/3 174/4/3 173/4/3
f 180/3/3 175/3/3 174/3/3
f 180/4/3 174/4/3 179/4/3
f 181/2/3 177/2/3 176/2/3
f 181/3/3 175/3/3 180/3/3
f 181/2/3 176/2/3 175/2/3
f 182/2/3 177/2/3 181/2/3
f 183/4/3 178/4/3 177/4/3
f 183/2/3 177/2/3 182/2/3
f 184/4/3 178/4/3 183/4/3
f 186/4/3 181/4/3 180/4/3
f 187/3/3 182/3/3 181/3/3
f 187/4/3 181/4/3 186/4/3
f 188/2/3 184/2/3 183/2/3
f 188/3/3 182/3/3 187/3/3
f 188/2/3 183/2/3 182/2/3
f 189/2/3 184/2/3 188/2/3
f 190/4/3 185/4/3 184/4/3
f 190/2/3 184/2/3 189/2/3
f 191/4/3 185/4/3 190/4/3
f 193/4/3 189/4/3 188/4/3
f 193/4/3 188/4/3 187/4/3
f 194/3/3 190/3/3 189/3/3
f 194/4/3 189/4/3 193/4/3
f 195/2/3 191/2/3 190/2/3
f 195/3/3 190/3/3 194/3/3
f 196/4/3 192/4/3 191/4/3
f 196/2/3 191/2/3 195/2/3
f 197/4/3 192/4/3 196/4/3
f 199/4/3 197/4/3 196/4/3
f 199/4/3 198/4/3 197/4/3
f 199/4/3 196/4/3 195/4/3
f 199/4/3 195/4/3 194/4/3
f 200/4/3 198/4/3 199/4/3
f 201/4/4 202/4/4 204/4/4
f 204/4/4 202/4/4 205/4/4
f 205/4/4 202/4/4 206/4/4
f 203/4/4 204/4/4 209/4/4
f 209/4/4 204/4/4 210/4/4
f 204/2/4 205/2/4 211/2/4
f 210/4/4 204/4/4 211/4/4
f 205/1/4 206/1/4 212/1/4
f 211/2/4 205/2/4 212/2/4
f 206/4/4 207/4/4 213/4/4
f 212/1/4 206/1/4 213/1/4
f 213/4/4 207/4/4 214/4/4
f 211/2/4 212/2/4 216/2/4
f 210/2/4 211/2/4 216/2/4
f 212/2/4 213/2/4 216/2/4
f 216/2/4 213/2/4 217/2/4
f 213/1/4 214/1/4 218/1/4
f 217/2/4 213/2/4 218/2/4
f 218/1/4 214/1/4 219/1/4
f 208/4/4 209/4/4 221/4/4
f 209/3/4 210/3/4 222/3/4
f 221/4/4 209/4/4 222/4/4
f 210/2/4 216/2/4 223/2/4
f 222/3/4 210/3/4 223/3/4
f 223/2/4 216/2/4 224/2/4
f 216/4/4 217/4/4 225/4/4
f 224/2/4 216/2/4 225/2/4
f 225/4/4 217/4/4 226/4/4
f 217/2/4 218/2/4 227/2/4
f 226/4/4 217/4/4 227/4/4
f 218/2/4 219/2/4 227/2/4
f 227/2/4 219/2/4 228/2/4
f 219/1/4 214/1/4 229/1/4
f 228/2/4 219/2/4 229/2/4
f 214/4/4 215/4/4 230/4/4
f 229/1/4 214/1/4 230/1/4
f 230/4/4 215/4/4 231/4/4
f 223/2/4 224/2/4 233/2/4
f 222/2/4 223/2/4 233/2/4
f 224/4/4 225/4/4 234/4/4
f 233/2/4 224/2/4 234/2/4
f 225/2/4 226/2/4 235/2/4
f 234/4/4 225/4/4 235/4/4
f 226/1/4 227/1/4 236/1/4
f 235/2/4 226/2/4 236/2/4
f 227/4/4 228/4/4 237/4/4
f 236/1/4 227/1/4 237/1/4
f 228/2/4 229/2/4 238/2/4
f 237/4/4 228/4/4 238/4/4
f 229/2/4 230/2/4 238/2/4
f 238/2/4 230/2/4 239/2/4
f 236/2/4 237/2/4 240/2/4
f 235/2/4 236/2/4 240/2/4
f 240/2/4 237/2/4 241/2/4
f 237/1/4 238/1/4 242/1/4
f 241/2/4 237/2/4 242/2/4
f 238/4/4 239/4/4 243/4/4
f 242/1/4 238/1/4 243/1/4
f 239/2/4 230/2/4 244/2/4
f 230/1/4 231/1/4 244/1/4
f 231/4/4 232/4/4 245/4/4
f 244/1/4 231/1/4 245/1/4
f 240/4/4 241/4/4 246/4/4
f 235/2/4 240/2/4 246/2/4
f 241/2/4 242/2/4 247/2/4
f 246/4/4 241/4/4 247/4/4
f 242/2/4 243/2/4 247/2/4
f 243/4/4 239/4/4 248/4/4
f 247/2/4 243/2/4 248/2/4
f 239/2/4 244/2/4 249/2/4
f 248/4/4 239/4/4 249/4/4
f 244/2/4 245/2/4 249/2/4
f 220/4/4 221/4/4 250/4/4
f 221/3/4 222/3/4 251/3/4
f 250/4/4 221/4/4 251/4/4
f 222/2/4 233/2/4 252/2/4
f 251/3/4 222/3/4 252/3/4
f 233/4/4 234/4/4 253/4/4
f 252/2/4 233/2/4 253/2/4
f 234/3/4 235/3/4 254/3/4
f 253/4/4 234/4/4 254/4/4
f 246/2/4 247/2/4 255/2/4
f 254/3/4 235/3/4 255/3/4
f 235/2/4 246/2/4 255/2/4
f 255/2/4 247/2/4 256/2/4
f 247/4/4 248/4/4 257/4/4
f 256/2/4 247/2/4 257/2/4
f 248/2/4 249/2/4 258/2/4
f 257/4/4 248/4/4 258/4/4
f 249/2/4 245/2/4 259/2/4
f 258/2/4 249/2/4 259/2/4
f 245/4/4 232/4/4 260/4/4
f 259/2/4 245/2/4 260/2/4
f 260/4/4 232/4/4 261/4/4
f 253/2/4 254/2/4 262/2/4
f 254/4/4 255/4/4 262/4/4
f 255/3/4 256/3/4 263/3/4
f 262/4/4 255/4/4 263/4/4
f 257/2/4 258/2/4 264/2/4
f 263/3/4 256/3/4 264/3/4
f 256/2/4 257/2/4 264/2/4
f 258/2/4 259/2/4 264/2/4
f 264/2/4 259/2/4 265/2/4
f 251/4/4 252/4/4 266/4/4
f 252/3/4 253/3/4 267/3/4
f 266/4/4 252/4/4 267/4/4
f 262/2/4 263/2/4 268/2/4
f 267/3/4 253/3/4 268/3/4
f 253/2/4 262/2/4 268/2/4
f 268/2/4 263/2/4 269/2/4
f 263/4/4 264/4/4 270/4/4
f 269/2/4 263/2/4 270/2/4
f 264/3/4 265/3/4 271/3/4
f 270/4/4 264/4/4 271/4/4
f 265/2/4 259/2/4 272/2/4
f 271/3/4 265/3/4 272/3/4
f 272/2/4 259/2/4 273/2/4
f 259/4/4 260/4/4 274/4/4
f 273/2/4 259/2/4 274/2/4
f 274/4/4 260/4/4 275/4/4
f 267/4/4 268/4/4 276/4/4
f 268/3/4 269/3/4 277/3/4
f 276/4/4 268/4/4 277/4/4
f 269/2/4 270/2/4 278/2/4
f 277/3/4 269/3/4 278/3/4
f 270/2/4 271/2/4 278/2/4
f 278/2/4 271/2/4 279/2/4
f 271/4/4 272/4/4 280/4/4
f 279/2/4 271/2/4 280/2/4
f 272/2/4 273/2/4 281/2/4
f 280/4/4 272/4/4 281/4/4
f 273/4/4 274/4/4 282/4/4
f 281/2/4 273/2/4 282/2/4
f 282/4/4 274/4/4 283/4/4
f 277/4/4 278/4/4 284/4/4
f 278/3/4 279/3/4 285/3/4
f 284/4/4 278/4/4 285/4/4
f 279/2/4 280/2/4 286/2/4
f 285/3/4 279/3/4 286/3/4
f 280/2/4 281/2/4 286/2/4
f 286/2/4 281/2/4 287/2/4
f 281/4/4 282/4/4 288/4/4
f 287/2/4 281/2/4 288/2/4
f 288/4/4 282/4/4 289/4/4
f 285/4/4 286/4/4 291/4/4
f 286/3/4 287/3/4 292/3/4
f 291/4/4 286/4/4 292/4/4
f 288/2/4 289/2/4 293/2/4
f 292/3/4 287/3/4 293/3/4
f 287/2/4 288/2/4 293/2/4
f 293/2/4 289/2/4 294/2/4
f 289/4/4 290/4/4 295/4/4
f 294/2/4 289/2/4 295/2/4
f 295/4/4 290/4/4 296/4/4
f 292/4/4 293/4/4 298/4/4
f 293/3/4 294/3/4 299/3/4
f 298/4/4 293/4/4 299/4/4
f 295/2/4 296/2/4 300/2/4
f 299/3/4 294/3/4 300/3/4
f 294/2/4 295/2/4 300/2/4
f 300/2/4 296/2/4 301/2/4
f 296/4/4 297/4/4 302/4/4
f 301/2/4 296/2/4 302/2/4
f 302/4/4 297/4/4 303/4/4
f 300/4/4 301/4/4 305/4/4
f 299/4/4 300/4/4 305/4/4
f 301/3/4 302/3/4 306/3/4
f 305/4/4 301/4/4 306/4/4
f 302/2/4 303/2/4 307/2/4
f 306/3/4 302/3/4 307/3/4
f 303/4/4 304/4/4 308/4/4
f 307/2/4 303/2/4 308/2/4
f 308/4/4 304/4/4 309/4/4
f 308/4/4 309/4/4 311/4/4
f 309/4/4 310/4/4 311/4/4
f 307/4/4 308/4/4 311/4/4
f 306/4/4 307/4/4 311/4/4
f 311/4/4 310/4/4 312/4/4
f 315/4/5 314/4/5 313/4/5
f 316/4/5 314/4/5 315/4/5
f 321/4/5 318/4/5 317/4/5
f 322/4/5 318/4/5 321/4/5
f 323/4/5 320/4/5 319/4/5
f 324/4/5 320/4/5 323/4/5
f 329/4/5 326/4/5 325/4/5
f 330/4/5 326/4/5 329/4/5
f 331/4/5 328/4/5 327/4/5
f 332/4/5 328/4/5 331/4/5
f 335/4/5 334/4/5 333/4/5
f 336/4/5 334/4/5 335/4/5
f 341/4/5 338/4/5 337/4/5
f 342/4/5 338/4/5 341/4/5
f 343/4/5 340/4/5 339/4/5
f 344/4/5 340/4/5 343/4/5
f 347/4/5 346/4/5 345/4/5
f 348/4/5 346/4/5 347/4/5
f 351/4/5 350/4/5 349/4/5
f 352/4/5 350/4/5 351/4/5
f 355/4/5 354/4/5 353/4/5
f 356/4/5 354/4/5 355/4/5
f 357/4/6 358/4/6 361/4/6
f 361/4/6 358/4/6 362/4/6
f 359/4/6 360/4/6 363/4/6
f 363/4/6 360/4/6 364/4/6
f 365/4/6 366/4/6 367/4/6
f 367/4/6 366/4/6 368/4/6
f 369/4/6 370/4/6 373/4/6
f 373/4/6 370/4/6 374/4/6
f 371/4/6 372/4/6 375/4/6
f 375/4/6 372/4/6 376/4/6
f 377/4/6 378/4/6 383/4/6
f 383/4/6 378/4/6 384/4/6
f 379/4/6 380/4/6 385/4/6
f 385/4/6 380/4/6 386/4/6
f 381/4/6 382/4/6 387/4/6
f 387/4/6 382/4/6 388/4/6
f 389/4/6 390/4/6 393/4/6
f 393/4/6 390/4/6 394/4/6
f 391/4/6 392/4/6 395/4/6
f 395/4/6 392/4/6 396/4/6
f 397/4/6 398/4/6 399/4/6
f 399/4/6 398/4/6 400/4/6
