# MagicaVoxel @ Ephtracy

# material
mtllib MOON.mtl
usemtl palette

# normals
vn -1 0 0
vn 1 0 0
vn 0 0 1
vn 0 0 -1
vn 0 -1 0
vn 0 1 0

# texcoords
vt 0.00195313 0.5
vt 0.00585938 0.5
vt 0.00976563 0.5
vt 0.0332031 0.5
vt 0.0371094 0.5
vt 0.0410156 0.5
vt 0.0644531 0.5
vt 0.0683594 0.5
vt 0.0957031 0.5
vt 0.0996094 0.5
vt 0.103516 0.5

# verts
v -8 0 8
v -8 0 -8
v -8 2 8
v -8 2 6
v -8 2 4
v -8 2 -0
v -8 2 -4
v -8 2 -6
v -8 2 -8
v -8 4 8
v -8 4 6
v -8 4 4
v -8 4 -0
v -8 4 -2
v -8 4 -4
v -8 4 -6
v -8 4 -8
v -8 6 8
v -8 6 6
v -8 6 -0
v -8 6 -2
v -8 6 -4
v -8 6 -6
v -8 6 -8
v -8 8 8
v -8 8 6
v -8 8 -2
v -8 8 -4
v -8 8 -6
v -8 8 -8
v -8 12 8
v -8 12 4
v -8 12 -2
v -8 12 -4
v -8 12 -8
v -8 14 -2
v -8 14 -4
v -8 16 8
v -8 16 4
v -8 16 -2
v -8 16 -8
v 8 0 8
v 8 0 -8
v 8 8 8
v 8 8 6
v 8 8 -6
v 8 8 -8
v 8 10 8
v 8 10 6
v 8 10 -6
v 8 10 -8
v 8 16 8
v 8 16 -8
v -8 0 8
v -8 2 8
v -8 4 8
v -8 6 8
v -8 8 8
v -8 12 8
v -8 16 8
v -6 2 8
v -6 4 8
v -6 6 8
v -6 8 8
v -6 10 8
v -6 12 8
v -6 14 8
v -4 2 8
v -4 4 8
v -4 6 8
v -4 10 8
v -4 12 8
v -4 14 8
v -4 16 8
v -2 6 8
v -2 8 8
v -2 10 8
v -2 14 8
v 0 0 8
v 0 2 8
v 0 6 8
v 0 10 8
v 0 12 8
v 0 14 8
v 0 16 8
v 2 0 8
v 2 2 8
v 2 4 8
v 2 6 8
v 2 8 8
v 2 12 8
v 2 14 8
v 2 16 8
v 4 2 8
v 4 4 8
v 4 6 8
v 4 8 8
v 4 10 8
v 4 12 8
v 4 14 8
v 4 16 8
v 6 2 8
v 6 4 8
v 6 6 8
v 6 8 8
v 6 10 8
v 6 12 8
v 6 14 8
v 6 16 8
v 8 0 8
v 8 8 8
v 8 10 8
v 8 16 8
v -8 0 -8
v -8 2 -8
v -8 4 -8
v -8 6 -8
v -8 8 -8
v -8 12 -8
v -8 16 -8
v -6 2 -8
v -6 4 -8
v -6 6 -8
v -6 8 -8
v -6 10 -8
v -6 12 -8
v -6 14 -8
v -4 2 -8
v -4 4 -8
v -4 6 -8
v -4 10 -8
v -4 12 -8
v -4 14 -8
v -4 16 -8
v -2 6 -8
v -2 8 -8
v -2 10 -8
v -2 14 -8
v 0 0 -8
v 0 2 -8
v 0 6 -8
v 0 10 -8
v 0 12 -8
v 0 14 -8
v 0 16 -8
v 2 0 -8
v 2 2 -8
v 2 4 -8
v 2 6 -8
v 2 8 -8
v 2 12 -8
v 2 14 -8
v 2 16 -8
v 4 2 -8
v 4 4 -8
v 4 6 -8
v 4 8 -8
v 4 10 -8
v 4 12 -8
v 4 14 -8
v 4 16 -8
v 6 2 -8
v 6 4 -8
v 6 6 -8
v 6 8 -8
v 6 10 -8
v 6 12 -8
v 6 14 -8
v 6 16 -8
v 8 0 -8
v 8 8 -8
v 8 10 -8
v 8 16 -8
v -8 0 8
v 0 0 8
v 2 0 8
v 8 0 8
v 0 0 6
v 2 0 6
v 0 0 -6
v 2 0 -6
v -8 0 -8
v 0 0 -8
v 2 0 -8
v 8 0 -8
v -8 16 8
v -4 16 8
v 0 16 8
v 2 16 8
v 4 16 8
v 6 16 8
v 8 16 8
v 2 16 7
v 4 16 7
v 0 16 6
v 2 16 6
v 4 16 6
v 6 16 6
v -8 16 4
v -7 16 4
v -6 16 4
v -4 16 4
v 0 16 4
v -6 16 3
v -4 16 3
v 3 16 3
v 5 16 3
v 3 16 1
v 5 16 1
v -1 16 -1
v 1 16 -1
v -8 16 -2
v -7 16 -2
v -1 16 -3
v 1 16 -3
v 0 16 -6
v 2 16 -6
v 4 16 -6
v 6 16 -6
v -4 16 -7
v 0 16 -7
v 2 16 -7
v 4 16 -7
v -8 16 -8
v -4 16 -8
v 0 16 -8
v 2 16 -8
v 4 16 -8
v 6 16 -8
v 8 16 -8

# faces
f 3/10/1 2/10/1 1/10/1
f 4/10/1 2/10/1 3/10/1
f 5/10/1 2/10/1 4/10/1
f 6/10/1 2/10/1 5/10/1
f 7/10/1 2/10/1 6/10/1
f 8/10/1 2/10/1 7/10/1
f 9/10/1 2/10/1 8/10/1
f 10/8/1 4/8/1 3/8/1
f 11/6/1 5/6/1 4/6/1
f 11/8/1 4/8/1 10/8/1
f 12/7/1 6/7/1 5/7/1
f 12/6/1 5/6/1 11/6/1
f 13/8/1 7/8/1 6/8/1
f 13/7/1 6/7/1 12/7/1
f 14/8/1 7/8/1 13/8/1
f 15/7/1 8/7/1 7/7/1
f 15/8/1 7/8/1 14/8/1
f 16/8/1 9/8/1 8/8/1
f 16/7/1 8/7/1 15/7/1
f 17/8/1 9/8/1 16/8/1
f 18/7/1 11/7/1 10/7/1
f 19/8/1 12/8/1 11/8/1
f 19/7/1 11/7/1 18/7/1
f 19/8/1 13/8/1 12/8/1
f 20/7/1 14/7/1 13/7/1
f 20/8/1 13/8/1 19/8/1
f 21/6/1 15/6/1 14/6/1
f 21/7/1 14/7/1 20/7/1
f 22/7/1 17/7/1 16/7/1
f 22/6/1 15/6/1 21/6/1
f 22/7/1 16/7/1 15/7/1
f 23/7/1 17/7/1 22/7/1
f 24/7/1 17/7/1 23/7/1
f 25/6/1 19/6/1 18/6/1
f 26/5/1 20/5/1 19/5/1
f 26/6/1 19/6/1 25/6/1
f 26/5/1 21/5/1 20/5/1
f 26/5/1 22/5/1 21/5/1
f 27/5/1 22/5/1 26/5/1
f 28/7/1 23/7/1 22/7/1
f 28/5/1 22/5/1 27/5/1
f 29/6/1 24/6/1 23/6/1
f 29/7/1 23/7/1 28/7/1
f 30/6/1 24/6/1 29/6/1
f 31/4/1 27/4/1 26/4/1
f 31/4/1 26/4/1 25/4/1
f 32/4/1 27/4/1 31/4/1
f 33/5/1 28/5/1 27/5/1
f 33/4/1 27/4/1 32/4/1
f 34/4/1 30/4/1 29/4/1
f 34/5/1 28/5/1 33/5/1
f 34/4/1 29/4/1 28/4/1
f 35/4/1 30/4/1 34/4/1
f 36/4/1 33/4/1 32/4/1
f 36/3/1 34/3/1 33/3/1
f 37/1/1 35/1/1 34/1/1
f 37/3/1 34/3/1 36/3/1
f 38/1/1 32/1/1 31/1/1
f 39/4/1 36/4/1 32/4/1
f 39/1/1 32/1/1 38/1/1
f 40/1/1 37/1/1 36/1/1
f 40/4/1 36/4/1 39/4/1
f 41/1/1 35/1/1 37/1/1
f 41/1/1 37/1/1 40/1/1
f 42/10/2 43/10/2 44/10/2
f 44/10/2 43/10/2 45/10/2
f 45/10/2 43/10/2 46/10/2
f 46/10/2 43/10/2 47/10/2
f 44/11/2 45/11/2 48/11/2
f 45/10/2 46/10/2 49/10/2
f 48/11/2 45/11/2 49/11/2
f 46/11/2 47/11/2 50/11/2
f 49/10/2 46/10/2 50/10/2
f 50/11/2 47/11/2 51/11/2
f 48/10/2 49/10/2 52/10/2
f 49/10/2 50/10/2 52/10/2
f 50/10/2 51/10/2 52/10/2
f 52/10/2 51/10/2 53/10/2
f 61/10/3 55/10/3 54/10/3
f 61/8/3 56/8/3 55/8/3
f 62/7/3 57/7/3 56/7/3
f 62/8/3 56/8/3 61/8/3
f 63/6/3 58/6/3 57/6/3
f 63/7/3 57/7/3 62/7/3
f 64/4/3 59/4/3 58/4/3
f 64/6/3 58/6/3 63/6/3
f 65/4/3 59/4/3 64/4/3
f 66/1/3 60/1/3 59/1/3
f 66/4/3 59/4/3 65/4/3
f 67/1/3 60/1/3 66/1/3
f 68/10/3 61/10/3 54/10/3
f 68/6/3 62/6/3 61/6/3
f 69/8/3 63/8/3 62/8/3
f 69/6/3 62/6/3 68/6/3
f 70/4/3 64/4/3 63/4/3
f 70/8/3 63/8/3 69/8/3
f 71/5/3 65/5/3 64/5/3
f 71/6/3 66/6/3 65/6/3
f 72/3/3 67/3/3 66/3/3
f 72/6/3 66/6/3 71/6/3
f 73/1/3 60/1/3 67/1/3
f 73/3/3 67/3/3 72/3/3
f 74/1/3 60/1/3 73/1/3
f 75/4/3 64/4/3 70/4/3
f 75/7/3 70/7/3 69/7/3
f 76/5/3 72/5/3 71/5/3
f 76/4/3 64/4/3 75/4/3
f 76/5/3 71/5/3 64/5/3
f 76/5/3 73/5/3 72/5/3
f 77/5/3 73/5/3 76/5/3
f 78/4/3 74/4/3 73/4/3
f 78/5/3 73/5/3 77/5/3
f 79/10/3 68/10/3 54/10/3
f 80/8/3 69/8/3 68/8/3
f 80/10/3 68/10/3 79/10/3
f 81/7/3 75/7/3 69/7/3
f 81/6/3 77/6/3 76/6/3
f 81/6/3 76/6/3 75/6/3
f 82/4/3 78/4/3 77/4/3
f 82/6/3 77/6/3 81/6/3
f 83/4/3 78/4/3 82/4/3
f 84/4/3 74/4/3 78/4/3
f 84/4/3 78/4/3 83/4/3
f 85/4/3 74/4/3 84/4/3
f 86/11/3 80/11/3 79/11/3
f 87/8/3 69/8/3 80/8/3
f 87/11/3 80/11/3 86/11/3
f 88/7/3 81/7/3 69/7/3
f 88/8/3 69/8/3 87/8/3
f 89/5/3 83/5/3 82/5/3
f 89/7/3 81/7/3 88/7/3
f 89/5/3 82/5/3 81/5/3
f 90/5/3 83/5/3 89/5/3
f 91/4/3 84/4/3 83/4/3
f 91/5/3 83/5/3 90/5/3
f 92/6/3 85/6/3 84/6/3
f 92/4/3 84/4/3 91/4/3
f 93/6/3 85/6/3 92/6/3
f 94/9/3 88/9/3 87/9/3
f 94/10/3 87/10/3 86/10/3
f 95/7/3 89/7/3 88/7/3
f 95/9/3 88/9/3 94/9/3
f 96/8/3 90/8/3 89/8/3
f 96/7/3 89/7/3 95/7/3
f 97/7/3 93/7/3 92/7/3
f 97/8/3 90/8/3 96/8/3
f 97/7/3 91/7/3 90/7/3
f 97/7/3 92/7/3 91/7/3
f 98/7/3 93/7/3 97/7/3
f 99/7/3 93/7/3 98/7/3
f 100/7/3 93/7/3 99/7/3
f 101/7/3 93/7/3 100/7/3
f 102/10/3 94/10/3 86/10/3
f 102/6/3 95/6/3 94/6/3
f 103/9/3 96/9/3 95/9/3
f 103/6/3 95/6/3 102/6/3
f 104/8/3 97/8/3 96/8/3
f 104/9/3 96/9/3 103/9/3
f 105/6/3 98/6/3 97/6/3
f 105/8/3 97/8/3 104/8/3
f 106/9/3 99/9/3 98/9/3
f 106/6/3 98/6/3 105/6/3
f 107/8/3 100/8/3 99/8/3
f 107/9/3 99/9/3 106/9/3
f 108/6/3 101/6/3 100/6/3
f 108/8/3 100/8/3 107/8/3
f 109/6/3 101/6/3 108/6/3
f 110/10/3 102/10/3 86/10/3
f 110/10/3 103/10/3 102/10/3
f 110/10/3 104/10/3 103/10/3
f 110/10/3 105/10/3 104/10/3
f 111/11/3 106/11/3 105/11/3
f 111/10/3 105/10/3 110/10/3
f 112/10/3 107/10/3 106/10/3
f 112/11/3 106/11/3 111/11/3
f 112/10/3 109/10/3 108/10/3
f 112/10/3 108/10/3 107/10/3
f 113/10/3 109/10/3 112/10/3
f 114/10/4 115/10/4 121/10/4
f 115/8/4 116/8/4 121/8/4
f 116/7/4 117/7/4 122/7/4
f 121/8/4 116/8/4 122/8/4
f 117/6/4 118/6/4 123/6/4
f 122/7/4 117/7/4 123/7/4
f 118/4/4 119/4/4 124/4/4
f 123/6/4 118/6/4 124/6/4
f 124/4/4 119/4/4 125/4/4
f 119/1/4 120/1/4 126/1/4
f 125/4/4 119/4/4 126/4/4
f 126/1/4 120/1/4 127/1/4
f 114/10/4 121/10/4 128/10/4
f 121/6/4 122/6/4 128/6/4
f 122/8/4 123/8/4 129/8/4
f 128/6/4 122/6/4 129/6/4
f 123/4/4 124/4/4 130/4/4
f 129/8/4 123/8/4 130/8/4
f 124/5/4 125/5/4 131/5/4
f 125/6/4 126/6/4 131/6/4
f 126/3/4 127/3/4 132/3/4
f 131/6/4 126/6/4 132/6/4
f 127/1/4 120/1/4 133/1/4
f 132/3/4 127/3/4 133/3/4
f 133/1/4 120/1/4 134/1/4
f 130/4/4 124/4/4 135/4/4
f 129/7/4 130/7/4 135/7/4
f 131/5/4 132/5/4 136/5/4
f 135/4/4 124/4/4 136/4/4
f 124/5/4 131/5/4 136/5/4
f 132/5/4 133/5/4 136/5/4
f 136/5/4 133/5/4 137/5/4
f 133/4/4 134/4/4 138/4/4
f 137/5/4 133/5/4 138/5/4
f 114/10/4 128/10/4 139/10/4
f 128/8/4 129/8/4 140/8/4
f 139/10/4 128/10/4 140/10/4
f 129/7/4 135/7/4 141/7/4
f 136/6/4 137/6/4 141/6/4
f 135/6/4 136/6/4 141/6/4
f 137/4/4 138/4/4 142/4/4
f 141/6/4 137/6/4 142/6/4
f 142/4/4 138/4/4 143/4/4
f 138/4/4 134/4/4 144/4/4
f 143/4/4 138/4/4 144/4/4
f 144/4/4 134/4/4 145/4/4
f 139/11/4 140/11/4 146/11/4
f 140/8/4 129/8/4 147/8/4
f 146/11/4 140/11/4 147/11/4
f 129/7/4 141/7/4 148/7/4
f 147/8/4 129/8/4 148/8/4
f 142/5/4 143/5/4 149/5/4
f 148/7/4 141/7/4 149/7/4
f 141/5/4 142/5/4 149/5/4
f 149/5/4 143/5/4 150/5/4
f 143/4/4 144/4/4 151/4/4
f 150/5/4 143/5/4 151/5/4
f 144/6/4 145/6/4 152/6/4
f 151/4/4 144/4/4 152/4/4
f 152/6/4 145/6/4 153/6/4
f 147/9/4 148/9/4 154/9/4
f 146/10/4 147/10/4 154/10/4
f 148/7/4 149/7/4 155/7/4
f 154/9/4 148/9/4 155/9/4
f 149/8/4 150/8/4 156/8/4
f 155/7/4 149/7/4 156/7/4
f 152/7/4 153/7/4 157/7/4
f 156/8/4 150/8/4 157/8/4
f 150/7/4 151/7/4 157/7/4
f 151/7/4 152/7/4 157/7/4
f 157/7/4 153/7/4 158/7/4
f 158/7/4 153/7/4 159/7/4
f 159/7/4 153/7/4 160/7/4
f 160/7/4 153/7/4 161/7/4
f 146/10/4 154/10/4 162/10/4
f 154/6/4 155/6/4 162/6/4
f 155/9/4 156/9/4 163/9/4
f 162/6/4 155/6/4 163/6/4
f 156/8/4 157/8/4 164/8/4
f 163/9/4 156/9/4 164/9/4
f 157/6/4 158/6/4 165/6/4
f 164/8/4 157/8/4 165/8/4
f 158/9/4 159/9/4 166/9/4
f 165/6/4 158/6/4 166/6/4
f 159/8/4 160/8/4 167/8/4
f 166/9/4 159/9/4 167/9/4
f 160/6/4 161/6/4 168/6/4
f 167/8/4 160/8/4 168/8/4
f 168/6/4 161/6/4 169/6/4
f 146/10/4 162/10/4 170/10/4
f 162/10/4 163/10/4 170/10/4
f 163/10/4 164/10/4 170/10/4
f 164/10/4 165/10/4 170/10/4
f 165/11/4 166/11/4 171/11/4
f 170/10/4 165/10/4 171/10/4
f 166/10/4 167/10/4 172/10/4
f 171/11/4 166/11/4 172/11/4
f 168/10/4 169/10/4 172/10/4
f 167/10/4 168/10/4 172/10/4
f 172/10/4 169/10/4 173/10/4
f 178/10/5 175/10/5 174/10/5
f 178/11/5 176/11/5 175/11/5
f 179/10/5 177/10/5 176/10/5
f 179/11/5 176/11/5 178/11/5
f 180/10/5 178/10/5 174/10/5
f 180/10/5 179/10/5 178/10/5
f 181/10/5 177/10/5 179/10/5
f 181/10/5 179/10/5 180/10/5
f 182/10/5 180/10/5 174/10/5
f 183/11/5 181/11/5 180/11/5
f 183/10/5 180/10/5 182/10/5
f 184/10/5 177/10/5 181/10/5
f 184/11/5 181/11/5 183/11/5
f 185/10/5 177/10/5 184/10/5
f 188/6/6 189/6/6 193/6/6
f 189/7/6 190/7/6 193/7/6
f 190/6/6 191/6/6 194/6/6
f 193/7/6 190/7/6 194/7/6
f 187/4/6 188/4/6 195/4/6
f 188/6/6 193/6/6 195/6/6
f 193/1/6 194/1/6 196/1/6
f 195/6/6 193/6/6 196/6/6
f 194/6/6 191/6/6 197/6/6
f 196/1/6 194/1/6 197/1/6
f 191/10/6 192/10/6 198/10/6
f 197/6/6 191/6/6 198/6/6
f 186/1/6 187/1/6 199/1/6
f 199/1/6 187/1/6 200/1/6
f 200/1/6 187/1/6 201/1/6
f 187/4/6 195/4/6 202/4/6
f 201/1/6 187/1/6 202/1/6
f 195/1/6 196/1/6 203/1/6
f 202/4/6 195/4/6 203/4/6
f 196/1/6 197/1/6 203/1/6
f 197/1/6 198/1/6 203/1/6
f 201/3/6 202/3/6 204/3/6
f 200/1/6 201/1/6 204/1/6
f 202/1/6 203/1/6 205/1/6
f 204/3/6 202/3/6 205/3/6
f 203/1/6 198/1/6 206/1/6
f 205/1/6 203/1/6 206/1/6
f 206/1/6 198/1/6 207/1/6
f 204/1/6 205/1/6 208/1/6
f 205/1/6 206/1/6 208/1/6
f 206/6/6 207/6/6 208/6/6
f 207/1/6 198/1/6 209/1/6
f 208/6/6 207/6/6 209/6/6
f 204/1/6 208/1/6 210/1/6
f 208/1/6 209/1/6 210/1/6
f 210/1/6 209/1/6 211/1/6
f 199/4/6 200/4/6 212/4/6
f 200/1/6 204/1/6 213/1/6
f 212/4/6 200/4/6 213/4/6
f 204/1/6 210/1/6 213/1/6
f 210/6/6 211/6/6 214/6/6
f 213/1/6 210/1/6 214/1/6
f 212/1/6 213/1/6 214/1/6
f 211/1/6 209/1/6 215/1/6
f 214/6/6 211/6/6 215/6/6
f 214/1/6 215/1/6 216/1/6
f 215/1/6 209/1/6 217/1/6
f 216/1/6 215/1/6 217/1/6
f 217/1/6 209/1/6 218/1/6
f 198/10/6 192/10/6 219/10/6
f 218/1/6 209/1/6 219/1/6
f 209/1/6 198/1/6 219/1/6
f 212/1/6 214/1/6 220/1/6
f 214/1/6 216/1/6 220/1/6
f 216/6/6 217/6/6 221/6/6
f 220/1/6 216/1/6 221/1/6
f 217/1/6 218/1/6 222/1/6
f 221/6/6 217/6/6 222/6/6
f 218/6/6 219/6/6 223/6/6
f 222/1/6 218/1/6 223/1/6
f 212/1/6 220/1/6 224/1/6
f 220/4/6 221/4/6 225/4/6
f 224/1/6 220/1/6 225/1/6
f 221/6/6 222/6/6 226/6/6
f 225/4/6 221/4/6 226/4/6
f 222/7/6 223/7/6 227/7/6
f 226/6/6 222/6/6 227/6/6
f 223/6/6 219/6/6 228/6/6
f 227/7/6 223/7/6 228/7/6
f 219/10/6 192/10/6 229/10/6
f 228/6/6 219/6/6 229/6/6
f 229/10/6 192/10/6 230/10/6
