# MagicaVoxel @ Ephtracy

# material
mtllib Item_Asteroid.mtl
usemtl palette

# normals
vn -1 0 0
vn 1 0 0
vn 0 0 1
vn 0 0 -1
vn 0 -1 0
vn 0 1 0

# texcoords
vt 0.00195313 0.5
vt 0.00585938 0.5
vt 0.00976563 0.5
vt 0.0136719 0.5
vt 0.955078 0.5

# verts
v -8.5 2 0.5
v -8.5 2 -0.5
v -8.5 7 0.5
v -8.5 7 -0.5
v -7.5 1 0.5
v -7.5 1 -0.5
v -7.5 2 0.5
v -7.5 2 -0.5
v -7.5 7 0.5
v -7.5 7 -0.5
v -7.5 8 0.5
v -7.5 8 -0.5
v -6.5 0 0.5
v -6.5 0 -0.5
v -6.5 1 0.5
v -6.5 1 -0.5
v -6.5 8 0.5
v -6.5 8 -0.5
v -6.5 9 0.5
v -6.5 9 -0.5
v -5.5 9 0.5
v -5.5 9 -0.5
v -5.5 10 0.5
v -5.5 10 -0.5
v -4.5 10 0.5
v -4.5 10 -0.5
v -4.5 11 0.5
v -4.5 11 -0.5
v -2.5 11 0.5
v -2.5 11 -0.5
v -2.5 12 0.5
v -2.5 12 -0.5
v -0.5 12 0.5
v -0.5 12 -0.5
v -0.5 13 0.5
v -0.5 13 -0.5
v 1.5 13 0.5
v 1.5 13 -0.5
v 1.5 14 0.5
v 1.5 14 -0.5
v 3.5 14 0.5
v 3.5 14 -0.5
v 3.5 15 0.5
v 3.5 15 -0.5
v 5.5 15 0.5
v 5.5 15 -0.5
v 5.5 16 0.5
v 5.5 16 -0.5
v 7.5 16 0.5
v 7.5 16 -0.5
v 7.5 17 0.5
v 7.5 17 -0.5
v -1.5 0 0.5
v -1.5 0 -0.5
v -1.5 1 0.5
v -1.5 1 -0.5
v -0.5 1 0.5
v -0.5 1 -0.5
v -0.5 2 0.5
v -0.5 2 -0.5
v 0.5 2 0.5
v 0.5 2 -0.5
v 0.5 3 0.5
v 0.5 3 -0.5
v 1.5 3 0.5
v 1.5 3 -0.5
v 1.5 4 0.5
v 1.5 4 -0.5
v 2.5 4 0.5
v 2.5 4 -0.5
v 2.5 6 0.5
v 2.5 6 -0.5
v 3.5 6 0.5
v 3.5 6 -0.5
v 3.5 8 0.5
v 3.5 8 -0.5
v 4.5 8 0.5
v 4.5 8 -0.5
v 4.5 10 0.5
v 4.5 10 -0.5
v 5.5 10 0.5
v 5.5 10 -0.5
v 5.5 12 0.5
v 5.5 12 -0.5
v 6.5 12 0.5
v 6.5 12 -0.5
v 6.5 14 0.5
v 6.5 14 -0.5
v 7.5 14 0.5
v 7.5 14 -0.5
v 7.5 15 0.5
v 7.5 15 -0.5
v 8.5 15 0.5
v 8.5 15 -0.5
v 8.5 17 0.5
v 8.5 17 -0.5
v -8.5 2 0.5
v -8.5 7 0.5
v -7.5 1 0.5
v -7.5 2 0.5
v -7.5 7 0.5
v -7.5 8 0.5
v -6.5 0 0.5
v -6.5 1 0.5
v -6.5 2 0.5
v -6.5 3 0.5
v -6.5 5 0.5
v -6.5 6 0.5
v -6.5 7 0.5
v -6.5 8 0.5
v -6.5 9 0.5
v -5.5 2 0.5
v -5.5 3 0.5
v -5.5 5 0.5
v -5.5 6 0.5
v -5.5 7 0.5
v -5.5 8 0.5
v -5.5 9 0.5
v -5.5 10 0.5
v -4.5 7 0.5
v -4.5 8 0.5
v -4.5 9 0.5
v -4.5 10 0.5
v -4.5 11 0.5
v -3.5 2 0.5
v -3.5 3 0.5
v -3.5 6 0.5
v -3.5 7 0.5
v -2.5 2 0.5
v -2.5 3 0.5
v -2.5 5 0.5
v -2.5 8 0.5
v -2.5 9 0.5
v -2.5 10 0.5
v -2.5 11 0.5
v -2.5 12 0.5
v -1.5 0 0.5
v -1.5 1 0.5
v -1.5 2 0.5
v -1.5 3 0.5
v -1.5 4 0.5
v -1.5 5 0.5
v -1.5 6 0.5
v -1.5 7 0.5
v -1.5 8 0.5
v -0.5 1 0.5
v -0.5 2 0.5
v -0.5 3 0.5
v -0.5 4 0.5
v -0.5 6 0.5
v -0.5 8 0.5
v -0.5 9 0.5
v -0.5 10 0.5
v -0.5 11 0.5
v -0.5 12 0.5
v -0.5 13 0.5
v 0.5 2 0.5
v 0.5 3 0.5
v 0.5 4 0.5
v 0.5 6 0.5
v 0.5 8 0.5
v 1.5 3 0.5
v 1.5 4 0.5
v 1.5 6 0.5
v 1.5 8 0.5
v 1.5 10 0.5
v 1.5 11 0.5
v 1.5 12 0.5
v 1.5 13 0.5
v 1.5 14 0.5
v 2.5 4 0.5
v 2.5 6 0.5
v 2.5 8 0.5
v 2.5 10 0.5
v 2.5 11 0.5
v 2.5 12 0.5
v 3.5 6 0.5
v 3.5 8 0.5
v 3.5 10 0.5
v 3.5 11 0.5
v 3.5 12 0.5
v 3.5 13 0.5
v 3.5 14 0.5
v 3.5 15 0.5
v 4.5 8 0.5
v 4.5 10 0.5
v 4.5 12 0.5
v 4.5 13 0.5
v 5.5 10 0.5
v 5.5 12 0.5
v 5.5 14 0.5
v 5.5 15 0.5
v 5.5 16 0.5
v 6.5 12 0.5
v 6.5 14 0.5
v 6.5 15 0.5
v 7.5 14 0.5
v 7.5 15 0.5
v 7.5 16 0.5
v 7.5 17 0.5
v 8.5 15 0.5
v 8.5 17 0.5
v -8.5 2 -0.5
v -8.5 7 -0.5
v -7.5 1 -0.5
v -7.5 2 -0.5
v -7.5 7 -0.5
v -7.5 8 -0.5
v -6.5 0 -0.5
v -6.5 1 -0.5
v -6.5 2 -0.5
v -6.5 3 -0.5
v -6.5 5 -0.5
v -6.5 6 -0.5
v -6.5 7 -0.5
v -6.5 8 -0.5
v -6.5 9 -0.5
v -5.5 2 -0.5
v -5.5 3 -0.5
v -5.5 5 -0.5
v -5.5 6 -0.5
v -5.5 7 -0.5
v -5.5 8 -0.5
v -5.5 9 -0.5
v -5.5 10 -0.5
v -4.5 7 -0.5
v -4.5 8 -0.5
v -4.5 9 -0.5
v -4.5 10 -0.5
v -4.5 11 -0.5
v -3.5 2 -0.5
v -3.5 3 -0.5
v -3.5 6 -0.5
v -3.5 7 -0.5
v -2.5 2 -0.5
v -2.5 3 -0.5
v -2.5 5 -0.5
v -2.5 8 -0.5
v -2.5 9 -0.5
v -2.5 10 -0.5
v -2.5 11 -0.5
v -2.5 12 -0.5
v -1.5 0 -0.5
v -1.5 1 -0.5
v -1.5 2 -0.5
v -1.5 3 -0.5
v -1.5 4 -0.5
v -1.5 5 -0.5
v -1.5 6 -0.5
v -1.5 7 -0.5
v -1.5 8 -0.5
v -0.5 1 -0.5
v -0.5 2 -0.5
v -0.5 3 -0.5
v -0.5 4 -0.5
v -0.5 6 -0.5
v -0.5 8 -0.5
v -0.5 9 -0.5
v -0.5 10 -0.5
v -0.5 11 -0.5
v -0.5 12 -0.5
v -0.5 13 -0.5
v 0.5 2 -0.5
v 0.5 3 -0.5
v 0.5 4 -0.5
v 0.5 6 -0.5
v 0.5 8 -0.5
v 1.5 3 -0.5
v 1.5 4 -0.5
v 1.5 6 -0.5
v 1.5 8 -0.5
v 1.5 10 -0.5
v 1.5 11 -0.5
v 1.5 12 -0.5
v 1.5 13 -0.5
v 1.5 14 -0.5
v 2.5 4 -0.5
v 2.5 6 -0.5
v 2.5 8 -0.5
v 2.5 10 -0.5
v 2.5 11 -0.5
v 2.5 12 -0.5
v 3.5 6 -0.5
v 3.5 8 -0.5
v 3.5 10 -0.5
v 3.5 11 -0.5
v 3.5 12 -0.5
v 3.5 13 -0.5
v 3.5 14 -0.5
v 3.5 15 -0.5
v 4.5 8 -0.5
v 4.5 10 -0.5
v 4.5 12 -0.5
v 4.5 13 -0.5
v 5.5 10 -0.5
v 5.5 12 -0.5
v 5.5 14 -0.5
v 5.5 15 -0.5
v 5.5 16 -0.5
v 6.5 12 -0.5
v 6.5 14 -0.5
v 6.5 15 -0.5
v 7.5 14 -0.5
v 7.5 15 -0.5
v 7.5 16 -0.5
v 7.5 17 -0.5
v 8.5 15 -0.5
v 8.5 17 -0.5
v -6.5 0 0.5
v -1.5 0 0.5
v -6.5 0 -0.5
v -1.5 0 -0.5
v -7.5 1 0.5
v -6.5 1 0.5
v -1.5 1 0.5
v -0.5 1 0.5
v -7.5 1 -0.5
v -6.5 1 -0.5
v -1.5 1 -0.5
v -0.5 1 -0.5
v -8.5 2 0.5
v -7.5 2 0.5
v -0.5 2 0.5
v 0.5 2 0.5
v -8.5 2 -0.5
v -7.5 2 -0.5
v -0.5 2 -0.5
v 0.5 2 -0.5
v 0.5 3 0.5
v 1.5 3 0.5
v 0.5 3 -0.5
v 1.5 3 -0.5
v 1.5 4 0.5
v 2.5 4 0.5
v 1.5 4 -0.5
v 2.5 4 -0.5
v 2.5 6 0.5
v 3.5 6 0.5
v 2.5 6 -0.5
v 3.5 6 -0.5
v 3.5 8 0.5
v 4.5 8 0.5
v 3.5 8 -0.5
v 4.5 8 -0.5
v 4.5 10 0.5
v 5.5 10 0.5
v 4.5 10 -0.5
v 5.5 10 -0.5
v 5.5 12 0.5
v 6.5 12 0.5
v 5.5 12 -0.5
v 6.5 12 -0.5
v 6.5 14 0.5
v 7.5 14 0.5
v 6.5 14 -0.5
v 7.5 14 -0.5
v 7.5 15 0.5
v 8.5 15 0.5
v 7.5 15 -0.5
v 8.5 15 -0.5
v -8.5 7 0.5
v -7.5 7 0.5
v -8.5 7 -0.5
v -7.5 7 -0.5
v -7.5 8 0.5
v -6.5 8 0.5
v -7.5 8 -0.5
v -6.5 8 -0.5
v -6.5 9 0.5
v -5.5 9 0.5
v -6.5 9 -0.5
v -5.5 9 -0.5
v -5.5 10 0.5
v -4.5 10 0.5
v -5.5 10 -0.5
v -4.5 10 -0.5
v -4.5 11 0.5
v -2.5 11 0.5
v -4.5 11 -0.5
v -2.5 11 -0.5
v -2.5 12 0.5
v -0.5 12 0.5
v -2.5 12 -0.5
v -0.5 12 -0.5
v -0.5 13 0.5
v 1.5 13 0.5
v -0.5 13 -0.5
v 1.5 13 -0.5
v 1.5 14 0.5
v 3.5 14 0.5
v 1.5 14 -0.5
v 3.5 14 -0.5
v 3.5 15 0.5
v 5.5 15 0.5
v 3.5 15 -0.5
v 5.5 15 -0.5
v 5.5 16 0.5
v 7.5 16 0.5
v 5.5 16 -0.5
v 7.5 16 -0.5
v 7.5 17 0.5
v 8.5 17 0.5
v 7.5 17 -0.5
v 8.5 17 -0.5

# faces
f 3/5/1 2/5/1 1/5/1
f 4/5/1 2/5/1 3/5/1
f 7/5/1 6/5/1 5/5/1
f 8/5/1 6/5/1 7/5/1
f 11/5/1 10/5/1 9/5/1
f 12/5/1 10/5/1 11/5/1
f 15/5/1 14/5/1 13/5/1
f 16/5/1 14/5/1 15/5/1
f 19/5/1 18/5/1 17/5/1
f 20/5/1 18/5/1 19/5/1
f 23/5/1 22/5/1 21/5/1
f 24/5/1 22/5/1 23/5/1
f 27/5/1 26/5/1 25/5/1
f 28/5/1 26/5/1 27/5/1
f 31/5/1 30/5/1 29/5/1
f 32/5/1 30/5/1 31/5/1
f 35/5/1 34/5/1 33/5/1
f 36/5/1 34/5/1 35/5/1
f 39/5/1 38/5/1 37/5/1
f 40/5/1 38/5/1 39/5/1
f 43/5/1 42/5/1 41/5/1
f 44/5/1 42/5/1 43/5/1
f 47/5/1 46/5/1 45/5/1
f 48/5/1 46/5/1 47/5/1
f 51/5/1 50/5/1 49/5/1
f 52/5/1 50/5/1 51/5/1
f 53/5/2 54/5/2 55/5/2
f 55/5/2 54/5/2 56/5/2
f 57/5/2 58/5/2 59/5/2
f 59/5/2 58/5/2 60/5/2
f 61/5/2 62/5/2 63/5/2
f 63/5/2 62/5/2 64/5/2
f 65/5/2 66/5/2 67/5/2
f 67/5/2 66/5/2 68/5/2
f 69/5/2 70/5/2 71/5/2
f 71/5/2 70/5/2 72/5/2
f 73/5/2 74/5/2 75/5/2
f 75/5/2 74/5/2 76/5/2
f 77/5/2 78/5/2 79/5/2
f 79/5/2 78/5/2 80/5/2
f 81/5/2 82/5/2 83/5/2
f 83/5/2 82/5/2 84/5/2
f 85/5/2 86/5/2 87/5/2
f 87/5/2 86/5/2 88/5/2
f 89/5/2 90/5/2 91/5/2
f 91/5/2 90/5/2 92/5/2
f 93/5/2 94/5/2 95/5/2
f 95/5/2 94/5/2 96/5/2
f 100/5/3 98/5/3 97/5/3
f 101/5/3 98/5/3 100/5/3
f 104/5/3 100/5/3 99/5/3
f 105/3/3 101/3/3 100/3/3
f 105/5/3 100/5/3 104/5/3
f 106/3/3 101/3/3 105/3/3
f 107/3/3 101/3/3 106/3/3
f 108/3/3 101/3/3 107/3/3
f 109/5/3 102/5/3 101/5/3
f 109/3/3 101/3/3 108/3/3
f 110/5/3 102/5/3 109/5/3
f 112/3/3 105/3/3 104/3/3
f 112/3/3 106/3/3 105/3/3
f 113/1/3 107/1/3 106/1/3
f 113/3/3 106/3/3 112/3/3
f 114/2/3 108/2/3 107/2/3
f 114/1/3 107/1/3 113/1/3
f 115/3/3 110/3/3 109/3/3
f 115/2/3 108/2/3 114/2/3
f 115/3/3 109/3/3 108/3/3
f 116/3/3 110/3/3 115/3/3
f 117/5/3 111/5/3 110/5/3
f 117/3/3 110/3/3 116/3/3
f 118/5/3 111/5/3 117/5/3
f 120/2/3 116/2/3 115/2/3
f 120/3/3 117/3/3 116/3/3
f 121/4/3 118/4/3 117/4/3
f 121/3/3 117/3/3 120/3/3
f 122/5/3 119/5/3 118/5/3
f 122/4/3 118/4/3 121/4/3
f 123/5/3 119/5/3 122/5/3
f 125/1/3 113/1/3 112/1/3
f 125/1/3 114/1/3 113/1/3
f 125/3/3 112/3/3 104/3/3
f 125/1/3 115/1/3 114/1/3
f 126/1/3 115/1/3 125/1/3
f 127/2/3 121/2/3 120/2/3
f 127/1/3 115/1/3 126/1/3
f 127/2/3 120/2/3 115/2/3
f 128/2/3 121/2/3 127/2/3
f 129/2/3 126/2/3 125/2/3
f 129/3/3 125/3/3 104/3/3
f 130/1/3 128/1/3 127/1/3
f 130/2/3 126/2/3 129/2/3
f 130/1/3 127/1/3 126/1/3
f 131/1/3 128/1/3 130/1/3
f 132/2/3 121/2/3 128/2/3
f 132/3/3 122/3/3 121/3/3
f 133/4/3 123/4/3 122/4/3
f 133/3/3 122/3/3 132/3/3
f 134/5/3 124/5/3 123/5/3
f 134/4/3 123/4/3 133/4/3
f 135/5/3 124/5/3 134/5/3
f 137/5/3 104/5/3 103/5/3
f 138/3/3 129/3/3 104/3/3
f 138/5/3 104/5/3 137/5/3
f 138/3/3 130/3/3 129/3/3
f 139/3/3 130/3/3 138/3/3
f 140/2/3 131/2/3 130/2/3
f 140/3/3 130/3/3 139/3/3
f 141/2/3 131/2/3 140/2/3
f 142/1/3 128/1/3 131/1/3
f 142/2/3 131/2/3 141/2/3
f 143/1/3 128/1/3 142/1/3
f 144/2/3 133/2/3 132/2/3
f 144/1/3 128/1/3 143/1/3
f 144/2/3 132/2/3 128/2/3
f 145/2/3 133/2/3 144/2/3
f 146/5/3 139/5/3 138/5/3
f 147/3/3 141/3/3 140/3/3
f 147/5/3 139/5/3 146/5/3
f 147/3/3 140/3/3 139/3/3
f 148/3/3 141/3/3 147/3/3
f 149/2/3 143/2/3 142/2/3
f 149/3/3 141/3/3 148/3/3
f 149/2/3 142/2/3 141/2/3
f 150/1/3 145/1/3 144/1/3
f 150/2/3 143/2/3 149/2/3
f 150/1/3 144/1/3 143/1/3
f 151/2/3 133/2/3 145/2/3
f 151/1/3 145/1/3 150/1/3
f 152/3/3 134/3/3 133/3/3
f 152/2/3 133/2/3 151/2/3
f 153/4/3 135/4/3 134/4/3
f 153/3/3 134/3/3 152/3/3
f 154/5/3 136/5/3 135/5/3
f 154/4/3 135/4/3 153/4/3
f 155/5/3 136/5/3 154/5/3
f 157/5/3 148/5/3 147/5/3
f 158/4/3 149/4/3 148/4/3
f 158/5/3 148/5/3 157/5/3
f 159/3/3 150/3/3 149/3/3
f 159/4/3 149/4/3 158/4/3
f 160/2/3 153/2/3 152/2/3
f 160/3/3 150/3/3 159/3/3
f 160/2/3 152/2/3 151/2/3
f 160/2/3 151/2/3 150/2/3
f 161/2/3 153/2/3 160/2/3
f 162/5/3 159/5/3 158/5/3
f 163/4/3 160/4/3 159/4/3
f 163/5/3 159/5/3 162/5/3
f 164/3/3 161/3/3 160/3/3
f 164/4/3 160/4/3 163/4/3
f 165/2/3 153/2/3 161/2/3
f 165/3/3 161/3/3 164/3/3
f 166/3/3 154/3/3 153/3/3
f 166/2/3 153/2/3 165/2/3
f 167/4/3 155/4/3 154/4/3
f 167/3/3 154/3/3 166/3/3
f 168/5/3 156/5/3 155/5/3
f 168/4/3 155/4/3 167/4/3
f 169/5/3 156/5/3 168/5/3
f 171/5/3 164/5/3 163/5/3
f 172/4/3 165/4/3 164/4/3
f 172/5/3 164/5/3 171/5/3
f 173/3/3 166/3/3 165/3/3
f 173/4/3 165/4/3 172/4/3
f 174/2/3 167/2/3 166/2/3
f 174/3/3 166/3/3 173/3/3
f 175/4/3 169/4/3 168/4/3
f 175/2/3 167/2/3 174/2/3
f 175/4/3 168/4/3 167/4/3
f 176/4/3 169/4/3 175/4/3
f 177/5/3 173/5/3 172/5/3
f 178/4/3 174/4/3 173/4/3
f 178/5/3 173/5/3 177/5/3
f 178/4/3 175/4/3 174/4/3
f 179/4/3 175/4/3 178/4/3
f 180/3/3 176/3/3 175/3/3
f 180/4/3 175/4/3 179/4/3
f 181/4/3 169/4/3 176/4/3
f 181/3/3 176/3/3 180/3/3
f 182/5/3 170/5/3 169/5/3
f 182/4/3 169/4/3 181/4/3
f 183/5/3 170/5/3 182/5/3
f 185/5/3 179/5/3 178/5/3
f 186/4/3 180/4/3 179/4/3
f 186/5/3 179/5/3 185/5/3
f 186/4/3 181/4/3 180/4/3
f 187/3/3 182/3/3 181/3/3
f 187/4/3 181/4/3 186/4/3
f 188/4/3 183/4/3 182/4/3
f 188/3/3 182/3/3 187/3/3
f 189/5/3 187/5/3 186/5/3
f 190/4/3 188/4/3 187/4/3
f 190/5/3 187/5/3 189/5/3
f 191/4/3 183/4/3 188/4/3
f 191/4/3 188/4/3 190/4/3
f 191/5/3 184/5/3 183/5/3
f 192/5/3 184/5/3 191/5/3
f 194/5/3 191/5/3 190/5/3
f 195/4/3 192/4/3 191/4/3
f 195/5/3 191/5/3 194/5/3
f 196/5/3 193/5/3 192/5/3
f 196/4/3 192/4/3 195/4/3
f 197/5/3 196/5/3 195/5/3
f 198/5/3 193/5/3 196/5/3
f 198/5/3 196/5/3 197/5/3
f 199/5/3 193/5/3 198/5/3
f 201/5/3 200/5/3 199/5/3
f 201/5/3 199/5/3 198/5/3
f 202/5/3 200/5/3 201/5/3
f 203/5/4 204/5/4 206/5/4
f 206/5/4 204/5/4 207/5/4
f 205/5/4 206/5/4 210/5/4
f 206/3/4 207/3/4 211/3/4
f 210/5/4 206/5/4 211/5/4
f 211/3/4 207/3/4 212/3/4
f 212/3/4 207/3/4 213/3/4
f 213/3/4 207/3/4 214/3/4
f 207/5/4 208/5/4 215/5/4
f 214/3/4 207/3/4 215/3/4
f 215/5/4 208/5/4 216/5/4
f 210/3/4 211/3/4 218/3/4
f 211/3/4 212/3/4 218/3/4
f 212/1/4 213/1/4 219/1/4
f 218/3/4 212/3/4 219/3/4
f 213/2/4 214/2/4 220/2/4
f 219/1/4 213/1/4 220/1/4
f 215/3/4 216/3/4 221/3/4
f 220/2/4 214/2/4 221/2/4
f 214/3/4 215/3/4 221/3/4
f 221/3/4 216/3/4 222/3/4
f 216/5/4 217/5/4 223/5/4
f 222/3/4 216/3/4 223/3/4
f 223/5/4 217/5/4 224/5/4
f 221/2/4 222/2/4 226/2/4
f 222/3/4 223/3/4 226/3/4
f 223/4/4 224/4/4 227/4/4
f 226/3/4 223/3/4 227/3/4
f 224/5/4 225/5/4 228/5/4
f 227/4/4 224/4/4 228/4/4
f 228/5/4 225/5/4 229/5/4
f 218/1/4 219/1/4 231/1/4
f 219/1/4 220/1/4 231/1/4
f 210/3/4 218/3/4 231/3/4
f 220/1/4 221/1/4 231/1/4
f 231/1/4 221/1/4 232/1/4
f 226/2/4 227/2/4 233/2/4
f 232/1/4 221/1/4 233/1/4
f 221/2/4 226/2/4 233/2/4
f 233/2/4 227/2/4 234/2/4
f 231/2/4 232/2/4 235/2/4
f 210/3/4 231/3/4 235/3/4
f 233/1/4 234/1/4 236/1/4
f 235/2/4 232/2/4 236/2/4
f 232/1/4 233/1/4 236/1/4
f 236/1/4 234/1/4 237/1/4
f 234/2/4 227/2/4 238/2/4
f 227/3/4 228/3/4 238/3/4
f 228/4/4 229/4/4 239/4/4
f 238/3/4 228/3/4 239/3/4
f 229/5/4 230/5/4 240/5/4
f 239/4/4 229/4/4 240/4/4
f 240/5/4 230/5/4 241/5/4
f 209/5/4 210/5/4 243/5/4
f 210/3/4 235/3/4 244/3/4
f 243/5/4 210/5/4 244/5/4
f 235/3/4 236/3/4 244/3/4
f 244/3/4 236/3/4 245/3/4
f 236/2/4 237/2/4 246/2/4
f 245/3/4 236/3/4 246/3/4
f 246/2/4 237/2/4 247/2/4
f 237/1/4 234/1/4 248/1/4
f 247/2/4 237/2/4 248/2/4
f 248/1/4 234/1/4 249/1/4
f 238/2/4 239/2/4 250/2/4
f 249/1/4 234/1/4 250/1/4
f 234/2/4 238/2/4 250/2/4
f 250/2/4 239/2/4 251/2/4
f 244/5/4 245/5/4 252/5/4
f 246/3/4 247/3/4 253/3/4
f 252/5/4 245/5/4 253/5/4
f 245/3/4 246/3/4 253/3/4
f 253/3/4 247/3/4 254/3/4
f 248/2/4 249/2/4 255/2/4
f 254/3/4 247/3/4 255/3/4
f 247/2/4 248/2/4 255/2/4
f 250/1/4 251/1/4 256/1/4
f 255/2/4 249/2/4 256/2/4
f 249/1/4 250/1/4 256/1/4
f 251/2/4 239/2/4 257/2/4
f 256/1/4 251/1/4 257/1/4
f 239/3/4 240/3/4 258/3/4
f 257/2/4 239/2/4 258/2/4
f 240/4/4 241/4/4 259/4/4
f 258/3/4 240/3/4 259/3/4
f 241/5/4 242/5/4 260/5/4
f 259/4/4 241/4/4 260/4/4
f 260/5/4 242/5/4 261/5/4
f 253/5/4 254/5/4 263/5/4
f 254/4/4 255/4/4 264/4/4
f 263/5/4 254/5/4 264/5/4
f 255/3/4 256/3/4 265/3/4
f 264/4/4 255/4/4 265/4/4
f 258/2/4 259/2/4 266/2/4
f 265/3/4 256/3/4 266/3/4
f 257/2/4 258/2/4 266/2/4
f 256/2/4 257/2/4 266/2/4
f 266/2/4 259/2/4 267/2/4
f 264/5/4 265/5/4 268/5/4
f 265/4/4 266/4/4 269/4/4
f 268/5/4 265/5/4 269/5/4
f 266/3/4 267/3/4 270/3/4
f 269/4/4 266/4/4 270/4/4
f 267/2/4 259/2/4 271/2/4
f 270/3/4 267/3/4 271/3/4
f 259/3/4 260/3/4 272/3/4
f 271/2/4 259/2/4 272/2/4
f 260/4/4 261/4/4 273/4/4
f 272/3/4 260/3/4 273/3/4
f 261/5/4 262/5/4 274/5/4
f 273/4/4 261/4/4 274/4/4
f 274/5/4 262/5/4 275/5/4
f 269/5/4 270/5/4 277/5/4
f 270/4/4 271/4/4 278/4/4
f 277/5/4 270/5/4 278/5/4
f 271/3/4 272/3/4 279/3/4
f 278/4/4 271/4/4 279/4/4
f 272/2/4 273/2/4 280/2/4
f 279/3/4 272/3/4 280/3/4
f 274/4/4 275/4/4 281/4/4
f 280/2/4 273/2/4 281/2/4
f 273/4/4 274/4/4 281/4/4
f 281/4/4 275/4/4 282/4/4
f 278/5/4 279/5/4 283/5/4
f 279/4/4 280/4/4 284/4/4
f 283/5/4 279/5/4 284/5/4
f 280/4/4 281/4/4 284/4/4
f 284/4/4 281/4/4 285/4/4
f 281/3/4 282/3/4 286/3/4
f 285/4/4 281/4/4 286/4/4
f 282/4/4 275/4/4 287/4/4
f 286/3/4 282/3/4 287/3/4
f 275/5/4 276/5/4 288/5/4
f 287/4/4 275/4/4 288/4/4
f 288/5/4 276/5/4 289/5/4
f 284/5/4 285/5/4 291/5/4
f 285/4/4 286/4/4 292/4/4
f 291/5/4 285/5/4 292/5/4
f 286/4/4 287/4/4 292/4/4
f 287/3/4 288/3/4 293/3/4
f 292/4/4 287/4/4 293/4/4
f 288/4/4 289/4/4 294/4/4
f 293/3/4 288/3/4 294/3/4
f 292/5/4 293/5/4 295/5/4
f 293/4/4 294/4/4 296/4/4
f 295/5/4 293/5/4 296/5/4
f 294/4/4 289/4/4 297/4/4
f 296/4/4 294/4/4 297/4/4
f 289/5/4 290/5/4 297/5/4
f 297/5/4 290/5/4 298/5/4
f 296/5/4 297/5/4 300/5/4
f 297/4/4 298/4/4 301/4/4
f 300/5/4 297/5/4 301/5/4
f 298/5/4 299/5/4 302/5/4
f 301/4/4 298/4/4 302/4/4
f 301/5/4 302/5/4 303/5/4
f 302/5/4 299/5/4 304/5/4
f 303/5/4 302/5/4 304/5/4
f 304/5/4 299/5/4 305/5/4
f 305/5/4 306/5/4 307/5/4
f 304/5/4 305/5/4 307/5/4
f 307/5/4 306/5/4 308/5/4
f 311/5/5 310/5/5 309/5/5
f 312/5/5 310/5/5 311/5/5
f 317/5/5 314/5/5 313/5/5
f 318/5/5 314/5/5 317/5/5
f 319/5/5 316/5/5 315/5/5
f 320/5/5 316/5/5 319/5/5
f 325/5/5 322/5/5 321/5/5
f 326/5/5 322/5/5 325/5/5
f 327/5/5 324/5/5 323/5/5
f 328/5/5 324/5/5 327/5/5
f 331/5/5 330/5/5 329/5/5
f 332/5/5 330/5/5 331/5/5
f 335/5/5 334/5/5 333/5/5
f 336/5/5 334/5/5 335/5/5
f 339/5/5 338/5/5 337/5/5
f 340/5/5 338/5/5 339/5/5
f 343/5/5 342/5/5 341/5/5
f 344/5/5 342/5/5 343/5/5
f 347/5/5 346/5/5 345/5/5
f 348/5/5 346/5/5 347/5/5
f 351/5/5 350/5/5 349/5/5
f 352/5/5 350/5/5 351/5/5
f 355/5/5 354/5/5 353/5/5
f 356/5/5 354/5/5 355/5/5
f 359/5/5 358/5/5 357/5/5
f 360/5/5 358/5/5 359/5/5
f 361/5/6 362/5/6 363/5/6
f 363/5/6 362/5/6 364/5/6
f 365/5/6 366/5/6 367/5/6
f 367/5/6 366/5/6 368/5/6
f 369/5/6 370/5/6 371/5/6
f 371/5/6 370/5/6 372/5/6
f 373/5/6 374/5/6 375/5/6
f 375/5/6 374/5/6 376/5/6
f 377/5/6 378/5/6 379/5/6
f 379/5/6 378/5/6 380/5/6
f 381/5/6 382/5/6 383/5/6
f 383/5/6 382/5/6 384/5/6
f 385/5/6 386/5/6 387/5/6
f 387/5/6 386/5/6 388/5/6
f 389/5/6 390/5/6 391/5/6
f 391/5/6 390/5/6 392/5/6
f 393/5/6 394/5/6 395/5/6
f 395/5/6 394/5/6 396/5/6
f 397/5/6 398/5/6 399/5/6
f 399/5/6 398/5/6 400/5/6
f 401/5/6 402/5/6 403/5/6
f 403/5/6 402/5/6 404/5/6
