# MagicaVoxel @ Ephtracy

# material
mtllib Item_Star.mtl
usemtl palette

# normals
vn -1 0 0
vn 1 0 0
vn 0 0 1
vn 0 0 -1
vn 0 -1 0
vn 0 1 0

# texcoords
vt 0.689453 0.5
vt 0.693359 0.5
vt 0.697266 0.5
vt 0.955078 0.5

# verts
v -8.5 10 0.5
v -8.5 10 -0.5
v -8.5 12 0.5
v -8.5 12 -0.5
v -7.5 0 0.5
v -7.5 0 -0.5
v -7.5 3 0.5
v -7.5 3 -0.5
v -7.5 9 0.5
v -7.5 9 -0.5
v -7.5 10 0.5
v -7.5 10 -0.5
v -6.5 3 0.5
v -6.5 3 -0.5
v -6.5 5 0.5
v -6.5 5 -0.5
v -6.5 8 0.5
v -6.5 8 -0.5
v -6.5 9 0.5
v -6.5 9 -0.5
v -5.5 5 0.5
v -5.5 5 -0.5
v -5.5 8 0.5
v -5.5 8 -0.5
v -3.5 12 0.5
v -3.5 12 -0.5
v -3.5 13 0.5
v -3.5 13 -0.5
v -2.5 13 0.5
v -2.5 13 -0.5
v -2.5 15 0.5
v -2.5 15 -0.5
v -1.5 15 0.5
v -1.5 15 -0.5
v -1.5 16 0.5
v -1.5 16 -0.5
v -0.5 16 0.5
v -0.5 16 -0.5
v -0.5 17 0.5
v -0.5 17 -0.5
v 1.5 2 0.5
v 1.5 2 -0.5
v 1.5 3 0.5
v 1.5 3 -0.5
v 3.5 1 0.5
v 3.5 1 -0.5
v 3.5 2 0.5
v 3.5 2 -0.5
v 4.5 0 0.5
v 4.5 0 -0.5
v 4.5 1 0.5
v 4.5 1 -0.5
v -4.5 0 0.5
v -4.5 0 -0.5
v -4.5 1 0.5
v -4.5 1 -0.5
v -3.5 1 0.5
v -3.5 1 -0.5
v -3.5 2 0.5
v -3.5 2 -0.5
v -1.5 2 0.5
v -1.5 2 -0.5
v -1.5 3 0.5
v -1.5 3 -0.5
v 0.5 16 0.5
v 0.5 16 -0.5
v 0.5 17 0.5
v 0.5 17 -0.5
v 1.5 15 0.5
v 1.5 15 -0.5
v 1.5 16 0.5
v 1.5 16 -0.5
v 2.5 13 0.5
v 2.5 13 -0.5
v 2.5 15 0.5
v 2.5 15 -0.5
v 3.5 12 0.5
v 3.5 12 -0.5
v 3.5 13 0.5
v 3.5 13 -0.5
v 5.5 5 0.5
v 5.5 5 -0.5
v 5.5 8 0.5
v 5.5 8 -0.5
v 6.5 3 0.5
v 6.5 3 -0.5
v 6.5 5 0.5
v 6.5 5 -0.5
v 6.5 8 0.5
v 6.5 8 -0.5
v 6.5 9 0.5
v 6.5 9 -0.5
v 7.5 0 0.5
v 7.5 0 -0.5
v 7.5 3 0.5
v 7.5 3 -0.5
v 7.5 9 0.5
v 7.5 9 -0.5
v 7.5 10 0.5
v 7.5 10 -0.5
v 8.5 10 0.5
v 8.5 10 -0.5
v 8.5 12 0.5
v 8.5 12 -0.5
v -8.5 10 0.5
v -8.5 12 0.5
v -7.5 0 0.5
v -7.5 3 0.5
v -7.5 9 0.5
v -7.5 10 0.5
v -7.5 11 0.5
v -6.5 1 0.5
v -6.5 2 0.5
v -6.5 3 0.5
v -6.5 5 0.5
v -6.5 8 0.5
v -6.5 9 0.5
v -6.5 10 0.5
v -5.5 3 0.5
v -5.5 5 0.5
v -5.5 8 0.5
v -5.5 9 0.5
v -4.5 0 0.5
v -4.5 1 0.5
v -4.5 2 0.5
v -4.5 3 0.5
v -4.5 5 0.5
v -4.5 8 0.5
v -3.5 1 0.5
v -3.5 2 0.5
v -3.5 3 0.5
v -3.5 4 0.5
v -3.5 10 0.5
v -3.5 11 0.5
v -3.5 12 0.5
v -3.5 13 0.5
v -2.5 11 0.5
v -2.5 12 0.5
v -2.5 13 0.5
v -2.5 15 0.5
v -1.5 2 0.5
v -1.5 3 0.5
v -1.5 4 0.5
v -1.5 5 0.5
v -1.5 12 0.5
v -1.5 13 0.5
v -1.5 15 0.5
v -1.5 16 0.5
v -0.5 13 0.5
v -0.5 15 0.5
v -0.5 16 0.5
v -0.5 17 0.5
v 0.5 15 0.5
v 0.5 16 0.5
v 0.5 17 0.5
v 1.5 2 0.5
v 1.5 3 0.5
v 1.5 4 0.5
v 1.5 5 0.5
v 1.5 13 0.5
v 1.5 15 0.5
v 1.5 16 0.5
v 2.5 12 0.5
v 2.5 13 0.5
v 2.5 15 0.5
v 3.5 1 0.5
v 3.5 2 0.5
v 3.5 3 0.5
v 3.5 4 0.5
v 3.5 11 0.5
v 3.5 12 0.5
v 3.5 13 0.5
v 4.5 0 0.5
v 4.5 1 0.5
v 4.5 2 0.5
v 4.5 3 0.5
v 4.5 5 0.5
v 4.5 8 0.5
v 4.5 9 0.5
v 5.5 3 0.5
v 5.5 5 0.5
v 5.5 8 0.5
v 5.5 9 0.5
v 5.5 10 0.5
v 6.5 1 0.5
v 6.5 2 0.5
v 6.5 3 0.5
v 6.5 5 0.5
v 6.5 8 0.5
v 6.5 9 0.5
v 6.5 10 0.5
v 7.5 0 0.5
v 7.5 3 0.5
v 7.5 9 0.5
v 7.5 10 0.5
v 7.5 11 0.5
v 8.5 10 0.5
v 8.5 12 0.5
v -8.5 10 -0.5
v -8.5 12 -0.5
v -7.5 0 -0.5
v -7.5 3 -0.5
v -7.5 9 -0.5
v -7.5 10 -0.5
v -7.5 11 -0.5
v -6.5 1 -0.5
v -6.5 2 -0.5
v -6.5 3 -0.5
v -6.5 5 -0.5
v -6.5 8 -0.5
v -6.5 9 -0.5
v -6.5 10 -0.5
v -5.5 3 -0.5
v -5.5 5 -0.5
v -5.5 8 -0.5
v -5.5 9 -0.5
v -4.5 0 -0.5
v -4.5 1 -0.5
v -4.5 2 -0.5
v -4.5 3 -0.5
v -4.5 5 -0.5
v -4.5 8 -0.5
v -3.5 1 -0.5
v -3.5 2 -0.5
v -3.5 3 -0.5
v -3.5 4 -0.5
v -3.5 10 -0.5
v -3.5 11 -0.5
v -3.5 12 -0.5
v -3.5 13 -0.5
v -2.5 11 -0.5
v -2.5 12 -0.5
v -2.5 13 -0.5
v -2.5 15 -0.5
v -1.5 2 -0.5
v -1.5 3 -0.5
v -1.5 4 -0.5
v -1.5 5 -0.5
v -1.5 12 -0.5
v -1.5 13 -0.5
v -1.5 15 -0.5
v -1.5 16 -0.5
v -0.5 13 -0.5
v -0.5 15 -0.5
v -0.5 16 -0.5
v -0.5 17 -0.5
v 0.5 15 -0.5
v 0.5 16 -0.5
v 0.5 17 -0.5
v 1.5 2 -0.5
v 1.5 3 -0.5
v 1.5 4 -0.5
v 1.5 5 -0.5
v 1.5 13 -0.5
v 1.5 15 -0.5
v 1.5 16 -0.5
v 2.5 12 -0.5
v 2.5 13 -0.5
v 2.5 15 -0.5
v 3.5 1 -0.5
v 3.5 2 -0.5
v 3.5 3 -0.5
v 3.5 4 -0.5
v 3.5 11 -0.5
v 3.5 12 -0.5
v 3.5 13 -0.5
v 4.5 0 -0.5
v 4.5 1 -0.5
v 4.5 2 -0.5
v 4.5 3 -0.5
v 4.5 5 -0.5
v 4.5 8 -0.5
v 4.5 9 -0.5
v 5.5 3 -0.5
v 5.5 5 -0.5
v 5.5 8 -0.5
v 5.5 9 -0.5
v 5.5 10 -0.5
v 6.5 1 -0.5
v 6.5 2 -0.5
v 6.5 3 -0.5
v 6.5 5 -0.5
v 6.5 8 -0.5
v 6.5 9 -0.5
v 6.5 10 -0.5
v 7.5 0 -0.5
v 7.5 3 -0.5
v 7.5 9 -0.5
v 7.5 10 -0.5
v 7.5 11 -0.5
v 8.5 10 -0.5
v 8.5 12 -0.5
v -7.5 0 0.5
v -4.5 0 0.5
v 4.5 0 0.5
v 7.5 0 0.5
v -7.5 0 -0.5
v -4.5 0 -0.5
v 4.5 0 -0.5
v 7.5 0 -0.5
v -4.5 1 0.5
v -3.5 1 0.5
v 3.5 1 0.5
v 4.5 1 0.5
v -4.5 1 -0.5
v -3.5 1 -0.5
v 3.5 1 -0.5
v 4.5 1 -0.5
v -3.5 2 0.5
v -1.5 2 0.5
v 1.5 2 0.5
v 3.5 2 0.5
v -3.5 2 -0.5
v -1.5 2 -0.5
v 1.5 2 -0.5
v 3.5 2 -0.5
v -1.5 3 0.5
v 1.5 3 0.5
v -1.5 3 -0.5
v 1.5 3 -0.5
v -6.5 8 0.5
v -5.5 8 0.5
v 5.5 8 0.5
v 6.5 8 0.5
v -6.5 8 -0.5
v -5.5 8 -0.5
v 5.5 8 -0.5
v 6.5 8 -0.5
v -7.5 9 0.5
v -6.5 9 0.5
v 6.5 9 0.5
v 7.5 9 0.5
v -7.5 9 -0.5
v -6.5 9 -0.5
v 6.5 9 -0.5
v 7.5 9 -0.5
v -8.5 10 0.5
v -7.5 10 0.5
v 7.5 10 0.5
v 8.5 10 0.5
v -8.5 10 -0.5
v -7.5 10 -0.5
v 7.5 10 -0.5
v 8.5 10 -0.5
v -7.5 3 0.5
v -6.5 3 0.5
v 6.5 3 0.5
v 7.5 3 0.5
v -7.5 3 -0.5
v -6.5 3 -0.5
v 6.5 3 -0.5
v 7.5 3 -0.5
v -6.5 5 0.5
v -5.5 5 0.5
v 5.5 5 0.5
v 6.5 5 0.5
v -6.5 5 -0.5
v -5.5 5 -0.5
v 5.5 5 -0.5
v 6.5 5 -0.5
v -8.5 12 0.5
v -3.5 12 0.5
v 3.5 12 0.5
v 8.5 12 0.5
v -8.5 12 -0.5
v -3.5 12 -0.5
v 3.5 12 -0.5
v 8.5 12 -0.5
v -3.5 13 0.5
v -2.5 13 0.5
v 2.5 13 0.5
v 3.5 13 0.5
v -3.5 13 -0.5
v -2.5 13 -0.5
v 2.5 13 -0.5
v 3.5 13 -0.5
v -2.5 15 0.5
v -1.5 15 0.5
v 1.5 15 0.5
v 2.5 15 0.5
v -2.5 15 -0.5
v -1.5 15 -0.5
v 1.5 15 -0.5
v 2.5 15 -0.5
v -1.5 16 0.5
v -0.5 16 0.5
v 0.5 16 0.5
v 1.5 16 0.5
v -1.5 16 -0.5
v -0.5 16 -0.5
v 0.5 16 -0.5
v 1.5 16 -0.5
v -0.5 17 0.5
v 0.5 17 0.5
v -0.5 17 -0.5
v 0.5 17 -0.5

# faces
f 3/4/1 2/4/1 1/4/1
f 4/4/1 2/4/1 3/4/1
f 7/4/1 6/4/1 5/4/1
f 8/4/1 6/4/1 7/4/1
f 11/4/1 10/4/1 9/4/1
f 12/4/1 10/4/1 11/4/1
f 15/4/1 14/4/1 13/4/1
f 16/4/1 14/4/1 15/4/1
f 19/4/1 18/4/1 17/4/1
f 20/4/1 18/4/1 19/4/1
f 23/4/1 22/4/1 21/4/1
f 24/4/1 22/4/1 23/4/1
f 27/4/1 26/4/1 25/4/1
f 28/4/1 26/4/1 27/4/1
f 31/4/1 30/4/1 29/4/1
f 32/4/1 30/4/1 31/4/1
f 35/4/1 34/4/1 33/4/1
f 36/4/1 34/4/1 35/4/1
f 39/4/1 38/4/1 37/4/1
f 40/4/1 38/4/1 39/4/1
f 43/4/1 42/4/1 41/4/1
f 44/4/1 42/4/1 43/4/1
f 47/4/1 46/4/1 45/4/1
f 48/4/1 46/4/1 47/4/1
f 51/4/1 50/4/1 49/4/1
f 52/4/1 50/4/1 51/4/1
f 53/4/2 54/4/2 55/4/2
f 55/4/2 54/4/2 56/4/2
f 57/4/2 58/4/2 59/4/2
f 59/4/2 58/4/2 60/4/2
f 61/4/2 62/4/2 63/4/2
f 63/4/2 62/4/2 64/4/2
f 65/4/2 66/4/2 67/4/2
f 67/4/2 66/4/2 68/4/2
f 69/4/2 70/4/2 71/4/2
f 71/4/2 70/4/2 72/4/2
f 73/4/2 74/4/2 75/4/2
f 75/4/2 74/4/2 76/4/2
f 77/4/2 78/4/2 79/4/2
f 79/4/2 78/4/2 80/4/2
f 81/4/2 82/4/2 83/4/2
f 83/4/2 82/4/2 84/4/2
f 85/4/2 86/4/2 87/4/2
f 87/4/2 86/4/2 88/4/2
f 89/4/2 90/4/2 91/4/2
f 91/4/2 90/4/2 92/4/2
f 93/4/2 94/4/2 95/4/2
f 95/4/2 94/4/2 96/4/2
f 97/4/2 98/4/2 99/4/2
f 99/4/2 98/4/2 100/4/2
f 101/4/2 102/4/2 103/4/2
f 103/4/2 102/4/2 104/4/2
f 110/4/3 106/4/3 105/4/3
f 111/4/3 106/4/3 110/4/3
f 112/4/3 108/4/3 107/4/3
f 113/4/3 108/4/3 112/4/3
f 114/4/3 108/4/3 113/4/3
f 117/4/3 110/4/3 109/4/3
f 118/3/3 111/3/3 110/3/3
f 118/4/3 110/4/3 117/4/3
f 119/4/3 115/4/3 114/4/3
f 119/1/3 114/1/3 113/1/3
f 120/4/3 115/4/3 119/4/3
f 121/4/3 117/4/3 116/4/3
f 122/1/3 118/1/3 117/1/3
f 122/4/3 117/4/3 121/4/3
f 123/4/3 112/4/3 107/4/3
f 124/2/3 113/2/3 112/2/3
f 124/4/3 112/4/3 123/4/3
f 125/1/3 120/1/3 119/1/3
f 125/2/3 113/2/3 124/2/3
f 125/1/3 119/1/3 113/1/3
f 126/1/3 120/1/3 125/1/3
f 127/4/3 121/4/3 120/4/3
f 127/1/3 120/1/3 126/1/3
f 128/1/3 122/1/3 121/1/3
f 128/4/3 121/4/3 127/4/3
f 129/4/3 125/4/3 124/4/3
f 130/2/3 126/2/3 125/2/3
f 130/4/3 125/4/3 129/4/3
f 131/1/3 127/1/3 126/1/3
f 131/2/3 126/2/3 130/2/3
f 131/1/3 128/1/3 127/1/3
f 132/1/3 128/1/3 131/1/3
f 133/3/3 111/3/3 118/3/3
f 133/1/3 128/1/3 132/1/3
f 133/1/3 122/1/3 128/1/3
f 133/1/3 118/1/3 122/1/3
f 134/4/3 106/4/3 111/4/3
f 134/3/3 111/3/3 133/3/3
f 135/4/3 106/4/3 134/4/3
f 137/1/3 133/1/3 132/1/3
f 137/3/3 135/3/3 134/3/3
f 137/1/3 134/1/3 133/1/3
f 138/4/3 136/4/3 135/4/3
f 138/3/3 135/3/3 137/3/3
f 139/4/3 136/4/3 138/4/3
f 141/4/3 131/4/3 130/4/3
f 142/2/3 132/2/3 131/2/3
f 142/4/3 131/4/3 141/4/3
f 143/1/3 137/1/3 132/1/3
f 143/2/3 132/2/3 142/2/3
f 143/1/3 138/1/3 137/1/3
f 144/1/3 138/1/3 143/1/3
f 145/3/3 139/3/3 138/3/3
f 145/1/3 138/1/3 144/1/3
f 146/4/3 140/4/3 139/4/3
f 146/3/3 139/3/3 145/3/3
f 147/4/3 140/4/3 146/4/3
f 149/1/3 145/1/3 144/1/3
f 149/3/3 147/3/3 146/3/3
f 149/1/3 146/1/3 145/1/3
f 150/4/3 148/4/3 147/4/3
f 150/3/3 147/3/3 149/3/3
f 151/4/3 148/4/3 150/4/3
f 153/1/3 150/1/3 149/1/3
f 153/3/3 151/3/3 150/3/3
f 154/4/3 152/4/3 151/4/3
f 154/3/3 151/3/3 153/3/3
f 155/4/3 152/4/3 154/4/3
f 157/4/3 143/4/3 142/4/3
f 158/2/3 144/2/3 143/2/3
f 158/4/3 143/4/3 157/4/3
f 159/1/3 149/1/3 144/1/3
f 159/2/3 144/2/3 158/2/3
f 159/1/3 153/1/3 149/1/3
f 160/1/3 153/1/3 159/1/3
f 161/4/3 154/4/3 153/4/3
f 161/1/3 153/1/3 160/1/3
f 162/4/3 154/4/3 161/4/3
f 163/1/3 160/1/3 159/1/3
f 163/1/3 159/1/3 158/1/3
f 164/4/3 161/4/3 160/4/3
f 164/1/3 160/1/3 163/1/3
f 165/4/3 161/4/3 164/4/3
f 167/4/3 157/4/3 156/4/3
f 168/2/3 158/2/3 157/2/3
f 168/4/3 157/4/3 167/4/3
f 169/1/3 163/1/3 158/1/3
f 169/2/3 158/2/3 168/2/3
f 170/1/3 163/1/3 169/1/3
f 171/4/3 164/4/3 163/4/3
f 171/1/3 163/1/3 170/1/3
f 172/4/3 164/4/3 171/4/3
f 174/4/3 167/4/3 166/4/3
f 175/2/3 168/2/3 167/2/3
f 175/4/3 167/4/3 174/4/3
f 176/1/3 170/1/3 169/1/3
f 176/2/3 168/2/3 175/2/3
f 176/1/3 169/1/3 168/1/3
f 177/1/3 170/1/3 176/1/3
f 178/1/3 170/1/3 177/1/3
f 179/1/3 170/1/3 178/1/3
f 180/1/3 176/1/3 175/1/3
f 180/1/3 177/1/3 176/1/3
f 181/4/3 178/4/3 177/4/3
f 181/1/3 177/1/3 180/1/3
f 182/2/3 179/2/3 178/2/3
f 182/4/3 178/4/3 181/4/3
f 183/1/3 170/1/3 179/1/3
f 183/2/3 179/2/3 182/2/3
f 184/1/3 170/1/3 183/1/3
f 185/4/3 174/4/3 173/4/3
f 185/2/3 175/2/3 174/2/3
f 186/1/3 180/1/3 175/1/3
f 186/2/3 175/2/3 185/2/3
f 187/4/3 181/4/3 180/4/3
f 187/1/3 180/1/3 186/1/3
f 188/4/3 181/4/3 187/4/3
f 189/4/3 183/4/3 182/4/3
f 190/2/3 184/2/3 183/2/3
f 190/4/3 183/4/3 189/4/3
f 191/1/3 170/1/3 184/1/3
f 191/2/3 184/2/3 190/2/3
f 192/4/3 186/4/3 185/4/3
f 192/4/3 187/4/3 186/4/3
f 192/4/3 185/4/3 173/4/3
f 193/4/3 187/4/3 192/4/3
f 194/4/3 191/4/3 190/4/3
f 195/1/3 170/1/3 191/1/3
f 195/4/3 191/4/3 194/4/3
f 196/4/3 171/4/3 170/4/3
f 196/1/3 170/1/3 195/1/3
f 197/4/3 196/4/3 195/4/3
f 198/4/3 171/4/3 196/4/3
f 198/4/3 196/4/3 197/4/3
f 199/4/4 200/4/4 204/4/4
f 204/4/4 200/4/4 205/4/4
f 201/4/4 202/4/4 206/4/4
f 206/4/4 202/4/4 207/4/4
f 207/4/4 202/4/4 208/4/4
f 203/4/4 204/4/4 211/4/4
f 204/3/4 205/3/4 212/3/4
f 211/4/4 204/4/4 212/4/4
f 208/4/4 209/4/4 213/4/4
f 207/1/4 208/1/4 213/1/4
f 213/4/4 209/4/4 214/4/4
f 210/4/4 211/4/4 215/4/4
f 211/1/4 212/1/4 216/1/4
f 215/4/4 211/4/4 216/4/4
f 201/4/4 206/4/4 217/4/4
f 206/2/4 207/2/4 218/2/4
f 217/4/4 206/4/4 218/4/4
f 213/1/4 214/1/4 219/1/4
f 218/2/4 207/2/4 219/2/4
f 207/1/4 213/1/4 219/1/4
f 219/1/4 214/1/4 220/1/4
f 214/4/4 215/4/4 221/4/4
f 220/1/4 214/1/4 221/1/4
f 215/1/4 216/1/4 222/1/4
f 221/4/4 215/4/4 222/4/4
f 218/4/4 219/4/4 223/4/4
f 219/2/4 220/2/4 224/2/4
f 223/4/4 219/4/4 224/4/4
f 220/1/4 221/1/4 225/1/4
f 224/2/4 220/2/4 225/2/4
f 221/1/4 222/1/4 225/1/4
f 225/1/4 222/1/4 226/1/4
f 212/3/4 205/3/4 227/3/4
f 226/1/4 222/1/4 227/1/4
f 222/1/4 216/1/4 227/1/4
f 216/1/4 212/1/4 227/1/4
f 205/4/4 200/4/4 228/4/4
f 227/3/4 205/3/4 228/3/4
f 228/4/4 200/4/4 229/4/4
f 226/1/4 227/1/4 231/1/4
f 228/3/4 229/3/4 231/3/4
f 227/1/4 228/1/4 231/1/4
f 229/4/4 230/4/4 232/4/4
f 231/3/4 229/3/4 232/3/4
f 232/4/4 230/4/4 233/4/4
f 224/4/4 225/4/4 235/4/4
f 225/2/4 226/2/4 236/2/4
f 235/4/4 225/4/4 236/4/4
f 226/1/4 231/1/4 237/1/4
f 236/2/4 226/2/4 237/2/4
f 231/1/4 232/1/4 237/1/4
f 237/1/4 232/1/4 238/1/4
f 232/3/4 233/3/4 239/3/4
f 238/1/4 232/1/4 239/1/4
f 233/4/4 234/4/4 240/4/4
f 239/3/4 233/3/4 240/3/4
f 240/4/4 234/4/4 241/4/4
f 238/1/4 239/1/4 243/1/4
f 240/3/4 241/3/4 243/3/4
f 239/1/4 240/1/4 243/1/4
f 241/4/4 242/4/4 244/4/4
f 243/3/4 241/3/4 244/3/4
f 244/4/4 242/4/4 245/4/4
f 243/1/4 244/1/4 247/1/4
f 244/3/4 245/3/4 247/3/4
f 245/4/4 246/4/4 248/4/4
f 247/3/4 245/3/4 248/3/4
f 248/4/4 246/4/4 249/4/4
f 236/4/4 237/4/4 251/4/4
f 237/2/4 238/2/4 252/2/4
f 251/4/4 237/4/4 252/4/4
f 238/1/4 243/1/4 253/1/4
f 252/2/4 238/2/4 253/2/4
f 243/1/4 247/1/4 253/1/4
f 253/1/4 247/1/4 254/1/4
f 247/4/4 248/4/4 255/4/4
f 254/1/4 247/1/4 255/1/4
f 255/4/4 248/4/4 256/4/4
f 253/1/4 254/1/4 257/1/4
f 252/1/4 253/1/4 257/1/4
f 254/4/4 255/4/4 258/4/4
f 257/1/4 254/1/4 258/1/4
f 258/4/4 255/4/4 259/4/4
f 250/4/4 251/4/4 261/4/4
f 251/2/4 252/2/4 262/2/4
f 261/4/4 251/4/4 262/4/4
f 252/1/4 257/1/4 263/1/4
f 262/2/4 252/2/4 263/2/4
f 263/1/4 257/1/4 264/1/4
f 257/4/4 258/4/4 265/4/4
f 264/1/4 257/1/4 265/1/4
f 265/4/4 258/4/4 266/4/4
f 260/4/4 261/4/4 268/4/4
f 261/2/4 262/2/4 269/2/4
f 268/4/4 261/4/4 269/4/4
f 263/1/4 264/1/4 270/1/4
f 269/2/4 262/2/4 270/2/4
f 262/1/4 263/1/4 270/1/4
f 270/1/4 264/1/4 271/1/4
f 271/1/4 264/1/4 272/1/4
f 272/1/4 264/1/4 273/1/4
f 269/1/4 270/1/4 274/1/4
f 270/1/4 271/1/4 274/1/4
f 271/4/4 272/4/4 275/4/4
f 274/1/4 271/1/4 275/1/4
f 272/2/4 273/2/4 276/2/4
f 275/4/4 272/4/4 276/4/4
f 273/1/4 264/1/4 277/1/4
f 276/2/4 273/2/4 277/2/4
f 277/1/4 264/1/4 278/1/4
f 267/4/4 268/4/4 279/4/4
f 268/2/4 269/2/4 279/2/4
f 269/1/4 274/1/4 280/1/4
f 279/2/4 269/2/4 280/2/4
f 274/4/4 275/4/4 281/4/4
f 280/1/4 274/1/4 281/1/4
f 281/4/4 275/4/4 282/4/4
f 276/4/4 277/4/4 283/4/4
f 277/2/4 278/2/4 284/2/4
f 283/4/4 277/4/4 284/4/4
f 278/1/4 264/1/4 285/1/4
f 284/2/4 278/2/4 285/2/4
f 279/4/4 280/4/4 286/4/4
f 280/4/4 281/4/4 286/4/4
f 267/4/4 279/4/4 286/4/4
f 286/4/4 281/4/4 287/4/4
f 284/4/4 285/4/4 288/4/4
f 285/1/4 264/1/4 289/1/4
f 288/4/4 285/4/4 289/4/4
f 264/4/4 265/4/4 290/4/4
f 289/1/4 264/1/4 290/1/4
f 289/4/4 290/4/4 291/4/4
f 290/4/4 265/4/4 292/4/4
f 291/4/4 290/4/4 292/4/4
f 297/4/5 294/4/5 293/4/5
f 298/4/5 294/4/5 297/4/5
f 299/4/5 296/4/5 295/4/5
f 300/4/5 296/4/5 299/4/5
f 305/4/5 302/4/5 301/4/5
f 306/4/5 302/4/5 305/4/5
f 307/4/5 304/4/5 303/4/5
f 308/4/5 304/4/5 307/4/5
f 313/4/5 310/4/5 309/4/5
f 314/4/5 310/4/5 313/4/5
f 315/4/5 312/4/5 311/4/5
f 316/4/5 312/4/5 315/4/5
f 319/4/5 318/4/5 317/4/5
f 320/4/5 318/4/5 319/4/5
f 325/4/5 322/4/5 321/4/5
f 326/4/5 322/4/5 325/4/5
f 327/4/5 324/4/5 323/4/5
f 328/4/5 324/4/5 327/4/5
f 333/4/5 330/4/5 329/4/5
f 334/4/5 330/4/5 333/4/5
f 335/4/5 332/4/5 331/4/5
f 336/4/5 332/4/5 335/4/5
f 341/4/5 338/4/5 337/4/5
f 342/4/5 338/4/5 341/4/5
f 343/4/5 340/4/5 339/4/5
f 344/4/5 340/4/5 343/4/5
f 345/4/6 346/4/6 349/4/6
f 349/4/6 346/4/6 350/4/6
f 347/4/6 348/4/6 351/4/6
f 351/4/6 348/4/6 352/4/6
f 353/4/6 354/4/6 357/4/6
f 357/4/6 354/4/6 358/4/6
f 355/4/6 356/4/6 359/4/6
f 359/4/6 356/4/6 360/4/6
f 361/4/6 362/4/6 365/4/6
f 365/4/6 362/4/6 366/4/6
f 363/4/6 364/4/6 367/4/6
f 367/4/6 364/4/6 368/4/6
f 369/4/6 370/4/6 373/4/6
f 373/4/6 370/4/6 374/4/6
f 371/4/6 372/4/6 375/4/6
f 375/4/6 372/4/6 376/4/6
f 377/4/6 378/4/6 381/4/6
f 381/4/6 378/4/6 382/4/6
f 379/4/6 380/4/6 383/4/6
f 383/4/6 380/4/6 384/4/6
f 385/4/6 386/4/6 389/4/6
f 389/4/6 386/4/6 390/4/6
f 387/4/6 388/4/6 391/4/6
f 391/4/6 388/4/6 392/4/6
f 393/4/6 394/4/6 395/4/6
f 395/4/6 394/4/6 396/4/6
